<?xml version="1.0" encoding="utf-8"?>
<!-- Generator: Adobe Illustrator 26.2.0, SVG Export Plug-In . SVG Version: 6.00 Build 0)  -->
<svg version="1.1" id="Livello_1" xmlns="http://www.w3.org/2000/svg" xmlns:xlink="http://www.w3.org/1999/xlink" x="0px" y="0px"
	 viewBox="0 0 219.2 30" style="enable-background:new 0 0 219.2 30;" xml:space="preserve">
<style type="text/css">
	.st0{fill:#0090D1;}
	.st1{font-family:'LFTEtica-Regular';}
	.st2{font-size:19.4344px;}
	.st3{fill:none;stroke:#0090D1;stroke-miterlimit:10;}
	.st4{fill:#0090D1;stroke:#0090D1;stroke-width:0.3;stroke-miterlimit:10;}
	
		.st5{clip-path:url(#SVGID_00000149382115085122332650000017968918672510977956_);fill:url(#SVGID_00000080205838296304497330000014733649755409610117_);}
	
		.st6{clip-path:url(#SVGID_00000111907732947078654000000012260609226451850428_);fill:url(#SVGID_00000146478997005738331560000003613964098749884073_);}
	
		.st7{clip-path:url(#SVGID_00000116934128455706565670000000310347334227813018_);fill:url(#SVGID_00000042718791357826792870000006989726929647760031_);}
	
		.st8{clip-path:url(#SVGID_00000106126090688283143530000009552948429971495073_);fill:url(#SVGID_00000149350194608432395020000013469914871395683262_);}
	
		.st9{clip-path:url(#SVGID_00000174585081142471676300000003212724094218803597_);fill:url(#SVGID_00000152985953865246140260000001327244828658911630_);}
	
		.st10{clip-path:url(#SVGID_00000032651057469987939420000003156211134685215925_);fill:url(#SVGID_00000137092858677076754970000001795967564760111779_);}
	
		.st11{clip-path:url(#SVGID_00000057105962447656351440000010711352994111842746_);fill:url(#SVGID_00000008116246640993352420000014748262158448714390_);}
	
		.st12{clip-path:url(#SVGID_00000029738142760867335200000003710712123129303425_);fill:url(#SVGID_00000168802476340193160800000015815451938681587346_);}
	
		.st13{clip-path:url(#SVGID_00000160872503431043592130000003582632231860498073_);fill:url(#SVGID_00000101091919942914744180000000992136054498839942_);}
	
		.st14{clip-path:url(#SVGID_00000041283528827190874560000012758664707287569036_);fill:url(#SVGID_00000073717421409281264990000000196323904135481984_);}
	
		.st15{clip-path:url(#SVGID_00000152252862635372974920000006545803991175023769_);fill:url(#SVGID_00000053505922462154420370000018264946575439377569_);}
	
		.st16{clip-path:url(#SVGID_00000083792023733542229900000011686036801594854034_);fill:url(#SVGID_00000116208578179603310250000016957095308824918207_);}
	
		.st17{clip-path:url(#SVGID_00000093887498944870565810000016174044594718857618_);fill:url(#SVGID_00000003822808165964537270000000440773742586415024_);}
	
		.st18{clip-path:url(#SVGID_00000070105449581008634140000012613694562158910635_);fill:url(#SVGID_00000047058320374579015440000017080516486208925349_);}
	.st19{fill:#2B66AE;}
	.st20{fill:#2965AE;}
	.st21{fill:none;stroke:#0E8FCF;stroke-width:2.5;stroke-miterlimit:10;}
</style>
<g>
	<text transform="matrix(1 0 0 1 146.4105 23.214)" class="st0 st1 st2">ID</text>
	<text transform="matrix(1 0 0 1 146.4105 23.214)" class="st3 st1 st2">ID</text>
	<g>
		<polygon class="st4" points="44.9,10.9 44.9,10.8 44.9,9.1 44.9,9.1 44.8,9.1 34.5,9.1 34.4,9.1 34.4,9.1 34.4,10.8 34.4,10.9 
			34.5,10.9 38.7,10.9 38.7,23.2 38.7,23.3 38.8,23.3 40.6,23.3 40.6,23.3 40.6,23.2 40.6,10.9 44.8,10.9 		"/>
		<path class="st4" d="M48.7,12.6c-2.9,0-4.7,2.2-4.7,5.5c0,3.4,1.7,5.4,4.8,5.4c1.5,0,2.8-0.5,3.9-1.4h0.1V22l-0.7-1.2v-0.1
			L52,20.8c-1.1,0.7-2,1.1-3,1.1c-2.3,0-2.9-1.7-2.9-3.2h6.6h0.1v-0.1c0-0.2,0-0.7,0-0.9C52.8,14.3,51.4,12.6,48.7,12.6 M45.9,17.1
			c0.1-0.6,0.4-2.9,2.8-2.9c1.5,0,2.3,1,2.3,2.9H45.9z"/>
		<path class="st4" d="M58.7,12.6c-1.4,0-2.9,0.6-3.9,1.5l-0.1,0.1v0.1l0.8,1.1v0.1h0.1c0.9-0.7,1.7-1.1,2.9-1.1
			c1.3,0,2.1,0.8,2.1,2.1v0.9c-0.5-0.1-1-0.1-1.5-0.1c-4.3,0-4.8,2.3-4.8,3.3c0,1.9,1.2,3.1,3.1,3.1c1.5,0,2.6-0.6,3.3-1.8l0.1,1.5
			v0.1h0.1h1.4h0.1v-0.3v-6.9C62.5,13.9,61.1,12.6,58.7,12.6 M60.6,18.7V19c0,1.3-1.2,2.9-2.7,2.9c-1.1,0-1.7-0.5-1.7-1.5
			c0-1.3,0.9-1.9,2.9-1.9C59.9,18.7,60.3,18.7,60.6,18.7"/>
		<path class="st4" d="M75.5,12.6c-1.5,0-2.5,0.8-3.2,1.6c-0.4-1.1-1.2-1.6-2.5-1.6c-1.2,0-2.2,0.5-3.1,1.6l-0.1-1.3v-0.1h-0.1H65
			h-0.1v0.1v10.3v0.1H65h1.7h0.1v-0.1v-7.4c0.6-0.7,1.5-1.5,2.5-1.5s1.4,0.6,1.4,2.1v6.8v0.1h0.1h1.7h0.1v-0.1v-7.4
			c0.6-0.7,1.4-1.4,2.4-1.4s1.4,0.6,1.4,2v6.8v0.1h0.1h1.7h0.1v-0.1v-7.1C78.3,13.8,77.4,12.6,75.5,12.6"/>
		<path class="st4" d="M86,15.2c-2.3-0.8-3.4-1.2-3.4-2.7c0-1.3,1-2,2.6-2c1.3,0,2.5,0.6,3.4,1.6l0.1,0.1l0.1-0.1l1-1.1v-0.1v-0.1
			c-1.2-1.4-2.7-2-4.6-2c-2.8,0-4.6,1.5-4.6,3.9c0,2.1,1.1,3.1,4.2,4.1c2.5,0.8,3.1,1.3,3.1,2.7c0,1.4-1.1,2.3-2.8,2.3
			c-1.3,0-2.6-0.6-3.9-1.8l-0.1-0.1L81,20l-1,1.2v0.1v0.1c1.3,1.4,3.1,2.2,5,2.2c2.9,0,4.8-1.6,4.8-4.2C89.8,17.2,88.9,16.2,86,15.2
			"/>
		<path class="st4" d="M97.6,12.9L97.6,12.9L97.6,12.9L95,21l-2.6-8v-0.1h-0.1h-1.8h-0.1V13L94,23.2l-0.2,0.5c-0.6,1.7-1,2-1.7,2
			c-0.6,0-1.2-0.1-1.3-0.2h-0.1v0.1l-0.2,1.2v0.1h0.1c0.6,0.2,1.1,0.2,1.8,0.2c2.1,0,2.5-1.1,3.4-3.9l3.6-10.4v-0.1h-0.1h-1.7V12.9z
			"/>
		<path class="st4" d="M104.8,17.2c-1.8-0.5-2.4-0.8-2.4-1.7c0-0.8,0.7-1.3,1.9-1.3c1,0,2,0.4,2.8,1.2l0.1,0.1l0.1-0.1l0.8-1v-0.1
			l-0.1-0.1c-1-1-2.3-1.6-3.8-1.6c-2.3,0-3.7,1.2-3.7,3.1c0,1.6,0.9,2.5,3.3,3.1c1.8,0.5,2.3,0.8,2.3,1.7c0,0.9-0.8,1.4-2.1,1.4
			c-1,0-2.1-0.5-3.1-1.3l-0.1-0.1l-0.1,0.1l-0.8,1.1v0.1l0,0c1,1.1,2.6,1.7,4.2,1.7c2.4,0,3.9-1.2,3.9-3.3
			C108.1,18.7,107.2,17.8,104.8,17.2"/>
		<path class="st4" d="M114.1,21.8L114.1,21.8l-0.1-0.1c-0.3,0.1-0.5,0.2-0.9,0.2c-0.5,0-0.7-0.2-0.7-0.8v-6.7h1.6h0.1v-0.1v-1.4
			v-0.1H114h-1.6V10V9.9h-0.1h-1.4h-0.1V10l-0.2,2.8l-1.2,0.3h-0.1v0.1v1.1v0.1h0.1h1.2v7c0,1.4,0.6,2.1,1.9,2.1
			c0.6,0,1.3-0.1,1.8-0.3h0.1v-0.1L114.1,21.8z"/>
		<path class="st4" d="M120.1,12.6c-2.9,0-4.7,2.2-4.7,5.5c0,3.4,1.7,5.4,4.8,5.4c1.5,0,2.8-0.5,3.9-1.4h0.1V22l-0.7-1.2v-0.1
			l-0.1,0.1c-1.1,0.7-2,1.1-3,1.1c-2.3,0-2.9-1.7-2.9-3.2h6.8h0.1v-0.1c0-0.2,0-0.7,0-0.9C124.3,14.3,122.9,12.6,120.1,12.6
			 M117.4,17.1c0.1-0.6,0.4-2.9,2.8-2.9c1.5,0,2.3,1,2.3,2.9H117.4z"/>
		<path class="st4" d="M136.9,12.6c-1.5,0-2.5,0.8-3.2,1.6c-0.4-1.1-1.2-1.6-2.5-1.6c-1.2,0-2.2,0.5-3.1,1.6l-0.1-1.3v-0.1h-0.1
			h-1.5h-0.1v0.1v10.3v0.1h0.1h1.7h0.1v-0.1v-7.4c0.6-0.7,1.5-1.5,2.5-1.5s1.4,0.6,1.4,2.1v6.8v0.1h0.1h1.7h0.1v-0.1v-7.4
			c0.6-0.7,1.4-1.4,2.4-1.4s1.4,0.6,1.4,2v6.8v0.1h0.1h1.7h0.1v-0.1v-7.1C139.7,13.8,138.7,12.6,136.9,12.6"/>
		<g>
			<g>
				<defs>
					<path id="SVGID_1_" d="M17.1,22.8C17,23.1,17,23.1,17,23.1l7.2,2.3c0,0,0.2-0.2,0.4-0.4c0.1-0.2,0.2-0.3,0.2-0.3l-7.6-2.4
						C17.2,22.4,17.2,22.6,17.1,22.8"/>
				</defs>
				<clipPath id="SVGID_00000126302835579807774150000003010430953368479119_">
					<use xlink:href="#SVGID_1_"  style="overflow:visible;"/>
				</clipPath>
				
					<linearGradient id="SVGID_00000036968165370756734620000010741389163848562331_" gradientUnits="userSpaceOnUse" x1="-616.3785" y1="419.3189" x2="-616.0721" y2="419.3189" gradientTransform="matrix(25.3343 0 0 25.3343 15632.5488 -10599.2256)">
					<stop  offset="0" style="stop-color:#E62F72"/>
					<stop  offset="0.1098" style="stop-color:#E62F72"/>
					<stop  offset="0.8613" style="stop-color:#EC694A"/>
					<stop  offset="1" style="stop-color:#EC694A"/>
				</linearGradient>
				
					<rect x="17" y="22.4" style="clip-path:url(#SVGID_00000126302835579807774150000003010430953368479119_);fill:url(#SVGID_00000036968165370756734620000010741389163848562331_);" width="7.8" height="3.1"/>
			</g>
		</g>
		<g>
			<g>
				<defs>
					<polygon id="SVGID_00000017513810908718412090000002324912627313976488_" points="0.7,10.1 9.6,11.1 9.6,10.2 0.7,9 					"/>
				</defs>
				<clipPath id="SVGID_00000147217233830079477700000002896415957139114672_">
					<use xlink:href="#SVGID_00000017513810908718412090000002324912627313976488_"  style="overflow:visible;"/>
				</clipPath>
				
					<linearGradient id="SVGID_00000036235181125775014840000017436665335760609695_" gradientUnits="userSpaceOnUse" x1="-617.7343" y1="418.2482" x2="-617.428" y2="418.2482" gradientTransform="matrix(28.9794 0 0 28.9794 17902.2637 -12110.5586)">
					<stop  offset="0" style="stop-color:#119ED9"/>
					<stop  offset="1" style="stop-color:#72BFEB"/>
				</linearGradient>
				
					<rect x="0.7" y="9" style="clip-path:url(#SVGID_00000147217233830079477700000002896415957139114672_);fill:url(#SVGID_00000036235181125775014840000017436665335760609695_);" width="8.9" height="2.1"/>
			</g>
		</g>
		<g>
			<g>
				<defs>
					<polygon id="SVGID_00000021841864708282110500000012448056346016790427_" points="0.7,16.5 0.7,17.3 9.6,16.5 9.6,15.8 					
						"/>
				</defs>
				<clipPath id="SVGID_00000036962687184111827380000004614336561289937038_">
					<use xlink:href="#SVGID_00000021841864708282110500000012448056346016790427_"  style="overflow:visible;"/>
				</clipPath>
				
					<linearGradient id="SVGID_00000037652163350078069420000008239448833813478304_" gradientUnits="userSpaceOnUse" x1="-617.7343" y1="417.7358" x2="-617.428" y2="417.7358" gradientTransform="matrix(28.9794 0 0 28.9794 17902.2637 -12089.209)">
					<stop  offset="0" style="stop-color:#119ED9"/>
					<stop  offset="1" style="stop-color:#007EC2"/>
				</linearGradient>
				
					<rect x="0.7" y="15.8" style="clip-path:url(#SVGID_00000036962687184111827380000004614336561289937038_);fill:url(#SVGID_00000037652163350078069420000008239448833813478304_);" width="8.9" height="1.5"/>
			</g>
		</g>
		<g>
			<g>
				<defs>
					<path id="SVGID_00000013901303230645845740000011496020304874416513_" d="M1.7,24.2c0,0,0.1,0.2,0.4,0.6
						c0.2,0.2,0.3,0.3,0.3,0.3l7.6-3.2c0,0-0.1-0.2-0.1-0.5c-0.2-0.3-0.2-0.6-0.2-0.6L1.7,24.2z"/>
				</defs>
				<clipPath id="SVGID_00000128443888684527167960000002880936261853203106_">
					<use xlink:href="#SVGID_00000013901303230645845740000011496020304874416513_"  style="overflow:visible;"/>
				</clipPath>
				
					<linearGradient id="SVGID_00000147206745162184032830000006530971415695969173_" gradientUnits="userSpaceOnUse" x1="-634.5513" y1="439.4498" x2="-634.245" y2="439.4498" gradientTransform="matrix(12.6038 -14.0963 14.0963 12.6038 1806.8555 -14458.2549)">
					<stop  offset="0" style="stop-color:#1B61AB"/>
					<stop  offset="1" style="stop-color:#007EC2"/>
				</linearGradient>
				
					<polygon style="clip-path:url(#SVGID_00000128443888684527167960000002880936261853203106_);fill:url(#SVGID_00000147206745162184032830000006530971415695969173_);" points="
					-0.4,23.2 5.4,16.7 12.1,22.7 6.3,29.2 				"/>
			</g>
		</g>
		<g>
			<g>
				<defs>
					<path id="SVGID_00000095335752346969509570000015921597479169421211_" d="M16.8,17.4c0,0,0.1,0.4,0.1,0.6s8.1-1.2,8.1-1.2
						s-0.1-0.5-0.1-0.7c0,0,0,0-0.1,0C23.8,16.2,16.8,17.4,16.8,17.4"/>
				</defs>
				<clipPath id="SVGID_00000085930893606372481070000006901320113897335994_">
					<use xlink:href="#SVGID_00000095335752346969509570000015921597479169421211_"  style="overflow:visible;"/>
				</clipPath>
				
					<linearGradient id="SVGID_00000059274173036358190310000017611674345405887164_" gradientUnits="userSpaceOnUse" x1="-617.5349" y1="418.9343" x2="-617.2285" y2="418.9343" gradientTransform="matrix(26.841 0 0 26.841 16592.0762 -11227.3926)">
					<stop  offset="0" style="stop-color:#F8B133"/>
					<stop  offset="5.202310e-02" style="stop-color:#F8B133"/>
					<stop  offset="0.7399" style="stop-color:#EC694A"/>
					<stop  offset="1" style="stop-color:#EC694A"/>
				</linearGradient>
				
					<rect x="16.8" y="16.2" style="clip-path:url(#SVGID_00000085930893606372481070000006901320113897335994_);fill:url(#SVGID_00000059274173036358190310000017611674345405887164_);" width="8.2" height="2.1"/>
			</g>
		</g>
		<g>
			<g>
				<defs>
					<path id="SVGID_00000137823454053662100200000011581864165448358277_" d="M15.9,9.6c-0.1,0.4-0.2,0.7-0.2,0.7l8.6,2.3
						c0,0,0-0.2,0.1-0.5c0-0.1,0.1-0.2,0.1-0.2L16.2,9C16.2,9,16,9.2,15.9,9.6"/>
				</defs>
				<clipPath id="SVGID_00000065052731829206400010000004714902569333839540_">
					<use xlink:href="#SVGID_00000137823454053662100200000011581864165448358277_"  style="overflow:visible;"/>
				</clipPath>
				
					<linearGradient id="SVGID_00000026851786092719346740000003807477327468834698_" gradientUnits="userSpaceOnUse" x1="-618.554" y1="418.4953" x2="-618.2477" y2="418.4953" gradientTransform="matrix(28.4324 0 0 28.4324 17602.6934 -11888.0518)">
					<stop  offset="0" style="stop-color:#F8B133"/>
					<stop  offset="0.1619" style="stop-color:#F8B133"/>
					<stop  offset="0.8497" style="stop-color:#FFD631"/>
					<stop  offset="1" style="stop-color:#FFD631"/>
				</linearGradient>
				
					<rect x="15.7" y="9" style="clip-path:url(#SVGID_00000065052731829206400010000004714902569333839540_);fill:url(#SVGID_00000026851786092719346740000003807477327468834698_);" width="8.7" height="3.6"/>
			</g>
		</g>
		<g>
			<g>
				<defs>
					<path id="SVGID_00000024689273862321565620000000214964721508241537_" d="M7.9,2.8c-4.7,0-7.2,1.9-7.2,5.9v0.8l9.2,1.1h2.2V6.1
						H9.7V2.7H7.9V2.8z"/>
				</defs>
				<clipPath id="SVGID_00000011005622105107502340000018008039825754292645_">
					<use xlink:href="#SVGID_00000024689273862321565620000000214964721508241537_"  style="overflow:visible;"/>
				</clipPath>
				
					<linearGradient id="SVGID_00000134245639410725567930000011449653556305362616_" gradientUnits="userSpaceOnUse" x1="-621.9485" y1="414.9932" x2="-621.6422" y2="414.9932" gradientTransform="matrix(36.9328 0 0 36.9328 22970.9961 -15320.1387)">
					<stop  offset="0" style="stop-color:#119ED9"/>
					<stop  offset="1" style="stop-color:#72BFEB"/>
				</linearGradient>
				
					<rect x="0.7" y="2.8" style="clip-path:url(#SVGID_00000011005622105107502340000018008039825754292645_);fill:url(#SVGID_00000134245639410725567930000011449653556305362616_);" width="11.3" height="7.9"/>
			</g>
		</g>
		<g>
			<g>
				<defs>
					<polygon id="SVGID_00000004509416561574505980000011575239860103299714_" points="0.7,16.9 9.6,16.2 9.6,10.7 9.6,10.6 
						9.9,10.6 0.7,9.5 					"/>
				</defs>
				<clipPath id="SVGID_00000013907136480472932720000012556610318863325623_">
					<use xlink:href="#SVGID_00000004509416561574505980000011575239860103299714_"  style="overflow:visible;"/>
				</clipPath>
				
					<linearGradient id="SVGID_00000071560653859240349430000001090652634319222176_" gradientUnits="userSpaceOnUse" x1="-615.8881" y1="419.4487" x2="-615.5818" y2="419.4487" gradientTransform="matrix(26.5555 0 0 26.5555 16355.2217 -11125.4961)">
					<stop  offset="0" style="stop-color:#119ED9"/>
					<stop  offset="1" style="stop-color:#007EC2"/>
				</linearGradient>
				
					<rect x="0.7" y="9.5" style="clip-path:url(#SVGID_00000013907136480472932720000012556610318863325623_);fill:url(#SVGID_00000071560653859240349430000001090652634319222176_);" width="9.2" height="7.4"/>
			</g>
		</g>
		<g>
			<g>
				<defs>
					<path id="SVGID_00000134971266132560947210000015941819716233858954_" d="M2.1,24.8c1.4,2,3.6,3.2,6.3,3.7c0,0,5-1.2,6.5-4.3
						c-0.3,0.1-1,0.1-1.4,0.1c-2.3,0-3.3-1.2-3.8-2.8L2.1,24.8z"/>
				</defs>
				<clipPath id="SVGID_00000065759606023518392760000014366727082560874630_">
					<use xlink:href="#SVGID_00000134971266132560947210000015941819716233858954_"  style="overflow:visible;"/>
				</clipPath>
				
					<linearGradient id="SVGID_00000183934078550625725100000000082192467799398836_" gradientUnits="userSpaceOnUse" x1="-602.1844" y1="402.7794" x2="-601.8781" y2="402.7794" gradientTransform="matrix(15.9616 12.1308 -12.1308 15.9616 14504.5508 899.4949)">
					<stop  offset="0" style="stop-color:#1B61AB"/>
					<stop  offset="1" style="stop-color:#164193"/>
				</linearGradient>
				
					<polygon style="clip-path:url(#SVGID_00000065759606023518392760000014366727082560874630_);fill:url(#SVGID_00000183934078550625725100000000082192467799398836_);" points="
					6.8,15.2 18.3,24 10.3,34.7 -1.3,25.9 				"/>
			</g>
		</g>
		<g>
			<g>
				<defs>
					<path id="SVGID_00000057862741056375793720000006782266236495906203_" d="M0.7,16.9v3.2c0,1.9,0.5,3.5,1.4,4.7l7.7-3.3
						c-0.2-0.7-0.2-1.6-0.2-2.4v-2.9L0.7,16.9z"/>
				</defs>
				<clipPath id="SVGID_00000016050089416070549140000011615592662083163572_">
					<use xlink:href="#SVGID_00000057862741056375793720000006782266236495906203_"  style="overflow:visible;"/>
				</clipPath>
				
					<linearGradient id="SVGID_00000181790579215581498720000004709780745942399629_" gradientUnits="userSpaceOnUse" x1="-635.3699" y1="429.112" x2="-635.0635" y2="429.112" gradientTransform="matrix(17.6351 -19.7235 19.7235 17.6351 2743.6604 -20075.4805)">
					<stop  offset="0" style="stop-color:#1B61AB"/>
					<stop  offset="1" style="stop-color:#007EC2"/>
				</linearGradient>
				
					<polygon style="clip-path:url(#SVGID_00000016050089416070549140000011615592662083163572_);fill:url(#SVGID_00000181790579215581498720000004709780745942399629_);" points="
					-3.5,21 4.8,11.7 14.1,20 5.8,29.3 				"/>
			</g>
		</g>
		<g>
			<g>
				<defs>
					<path id="SVGID_00000044898333497623241180000016581983518538658214_" d="M21.4,6.1c-2.8,0-4.8,1.4-5.5,3.5l8.5,2.5
						c0.3-1.1,1.3-1.5,2.7-1.5V6.1H21.4z"/>
				</defs>
				<clipPath id="SVGID_00000036227169043256359700000016801885191833089945_">
					<use xlink:href="#SVGID_00000044898333497623241180000016581983518538658214_"  style="overflow:visible;"/>
				</clipPath>
				
					<linearGradient id="SVGID_00000124866171225371439830000003536237511121916602_" gradientUnits="userSpaceOnUse" x1="-622.7084" y1="414.994" x2="-622.402" y2="414.994" gradientTransform="matrix(36.4954 0 0 36.4954 22741.8848 -15136.2998)">
					<stop  offset="0" style="stop-color:#F8B133"/>
					<stop  offset="0.1619" style="stop-color:#F8B133"/>
					<stop  offset="0.8497" style="stop-color:#FFD631"/>
					<stop  offset="1" style="stop-color:#FFD631"/>
				</linearGradient>
				
					<rect x="15.9" y="6.1" style="clip-path:url(#SVGID_00000036227169043256359700000016801885191833089945_);fill:url(#SVGID_00000124866171225371439830000003536237511121916602_);" width="11.2" height="6"/>
			</g>
		</g>
		<g>
			<g>
				<defs>
					<path id="SVGID_00000048467474557235416820000009249187396547445643_" d="M15.8,12.8c0.4,1.9,0.8,3.4,1.1,4.9l8.1-1.2
						c-0.3-1.4-0.6-2.7-0.6-3c-0.1-0.6-0.1-1,0-1.4l-8.5-2.5C15.6,10.6,15.5,11.7,15.8,12.8"/>
				</defs>
				<clipPath id="SVGID_00000098216068364438899900000000542744736564223874_">
					<use xlink:href="#SVGID_00000048467474557235416820000009249187396547445643_"  style="overflow:visible;"/>
				</clipPath>
				
					<linearGradient id="SVGID_00000129926633537687488280000007533023336530100880_" gradientUnits="userSpaceOnUse" x1="-619.8542" y1="417.1456" x2="-619.5479" y2="417.1456" gradientTransform="matrix(30.5656 0 0 30.5656 18961.8223 -12736.6826)">
					<stop  offset="0" style="stop-color:#F8B133"/>
					<stop  offset="5.202310e-02" style="stop-color:#F8B133"/>
					<stop  offset="0.7399" style="stop-color:#EC694A"/>
					<stop  offset="1" style="stop-color:#EC694A"/>
				</linearGradient>
				
					<rect x="15.5" y="9.6" style="clip-path:url(#SVGID_00000098216068364438899900000000542744736564223874_);fill:url(#SVGID_00000129926633537687488280000007533023336530100880_);" width="9.5" height="8.1"/>
			</g>
		</g>
		<g>
			<g>
				<defs>
					<path id="SVGID_00000051358802404432311080000016021673514790206628_" d="M11.4,28.4l0.1,0.3c0.3,0,1.1,0,2.8,0
						c3.9,0,8.2-0.9,10.2-3.8L17,22.7C16.6,25.3,14.8,27.2,11.4,28.4"/>
				</defs>
				<clipPath id="SVGID_00000154414574674853189180000009882148493131988902_">
					<use xlink:href="#SVGID_00000051358802404432311080000016021673514790206628_"  style="overflow:visible;"/>
				</clipPath>
				
					<linearGradient id="SVGID_00000093896181760736994320000009325825588763276208_" gradientUnits="userSpaceOnUse" x1="-647.5187" y1="427.3201" x2="-647.2124" y2="427.3201" gradientTransform="matrix(6.8759 -23.9024 23.9024 6.8759 -5745.2866 -18384.002)">
					<stop  offset="0" style="stop-color:#C2006B"/>
					<stop  offset="0.8902" style="stop-color:#E62F72"/>
					<stop  offset="1" style="stop-color:#E62F72"/>
				</linearGradient>
				
					<polygon style="clip-path:url(#SVGID_00000154414574674853189180000009882148493131988902_);fill:url(#SVGID_00000093896181760736994320000009325825588763276208_);" points="
					9.9,28.4 12.5,19.3 26.2,23.3 23.6,32.3 				"/>
			</g>
		</g>
		<g>
			<g>
				<defs>
					<path id="SVGID_00000147929156410101036610000000722643302979374776_" d="M16.9,17.7c0.2,1.2,0.4,2.4,0.4,3.8
						c0,0.5,0,0.9-0.1,1.4l7.5,2.2c0.7-1,1.1-2.2,1.1-3.7c0-1.1-0.4-3.1-0.7-4.9L16.9,17.7z"/>
				</defs>
				<clipPath id="SVGID_00000155832594411748023100000014740435450909590144_">
					<use xlink:href="#SVGID_00000147929156410101036610000000722643302979374776_"  style="overflow:visible;"/>
				</clipPath>
				
					<linearGradient id="SVGID_00000072273460339886416430000014202080515413834639_" gradientUnits="userSpaceOnUse" x1="-621.2298" y1="422.6871" x2="-620.9233" y2="422.6871" gradientTransform="matrix(25.7551 -5.6134 5.6134 25.7551 13644.4492 -14351.9209)">
					<stop  offset="0" style="stop-color:#E62F72"/>
					<stop  offset="0.1098" style="stop-color:#E62F72"/>
					<stop  offset="0.8613" style="stop-color:#EC694A"/>
					<stop  offset="1" style="stop-color:#EC694A"/>
				</linearGradient>
				
					<polygon style="clip-path:url(#SVGID_00000155832594411748023100000014740435450909590144_);fill:url(#SVGID_00000072273460339886416430000014202080515413834639_);" points="
					15.1,16.9 25.3,14.7 27.5,24.7 17.3,26.9 				"/>
			</g>
		</g>
	</g>
	<g>
		<g>
			<path class="st19" d="M194.5,26.9c0-4.1,0-8.1,0-12.2c0-0.3,0.1-0.4,0.4-0.4c0.5,0,1,0,1.5,0c0.3,0,0.5,0,0.5,0.4
				c0.5-0.2,0.9-0.5,1.4-0.6c1.9-0.3,3.5,0.5,3.9,2.6c0.2,1.2,0.3,2.5,0,3.7c-0.3,1.9-1.4,2.8-3.4,2.9c-0.5,0-1.1,0-1.6-0.1
				c-0.2,0-0.4-0.1-0.4,0.3c0,1.1-0.1,2.2,0,3.4C196.1,26.9,195.3,26.9,194.5,26.9z M196.8,18.9c0,0.7,0,1.3,0,2
				c0,0.3,0.1,0.4,0.3,0.4c0.4,0,0.8,0.1,1.2,0c0.8-0.1,1.2-0.4,1.4-1.2c0.2-0.8,0.2-1.6,0.1-2.5c-0.2-1.1-0.8-1.6-1.9-1.4
				c-0.3,0-0.5,0.1-0.7,0.2c-0.3,0.1-0.4,0.2-0.4,0.5C196.8,17.6,196.8,18.2,196.8,18.9z"/>
			<path class="st19" d="M218.7,16.9c0,1.9,0,3.8,0,5.7c0,0.3-0.1,0.5-0.4,0.5c-0.4,0-0.9,0-1.3,0c-0.2,0-0.5,0.1-0.6-0.2
				c-0.1-0.2-0.3,0-0.4,0.1c-0.9,0.4-1.8,0.5-2.7,0.3c-1.1-0.2-1.8-0.8-2.1-1.9c-0.5-1.6-0.5-3.3,0-4.9c0.5-1.8,2-2.4,3.7-2.3
				c0.4,0,0.8,0.1,1.1,0.2c0.4,0.1,0.5-0.1,0.5-0.4c0-0.9,0-1.8,0-2.7c0-0.3,0.1-0.4,0.4-0.4c0.5,0,1,0,1.6,0c0.3,0,0.4,0.1,0.4,0.4
				C218.7,13.1,218.7,15,218.7,16.9z M216.3,18.6c0-0.3,0-0.7,0-1c0-1.5,0-1.5-1.6-1.5c-0.7,0-1.1,0.2-1.3,0.9
				c-0.4,1.1-0.3,2.3,0,3.4c0.1,0.4,0.4,0.7,0.8,0.7c0.6,0,1.2,0,1.8-0.2c0.2-0.1,0.3-0.2,0.3-0.4C216.3,20,216.3,19.3,216.3,18.6z"
				/>
			<path class="st19" d="M192.5,16.5c-1.2-0.1-2.2-0.3-3.3-0.3c-0.7,0-1.2,0.2-1.2,0.6c0,0.7,0.6,0.6,1,0.7c0.7,0.2,1.5,0.2,2.3,0.5
				c1,0.4,1.5,1,1.5,2.1c0,0.8,0,1.5-0.6,2.2s-1.5,0.9-2.4,1c-1.2,0.1-2.5-0.1-3.7-0.3c-0.3,0-0.4-0.2-0.3-0.4c0-0.4,0-0.8,0-1.1
				c-0.1-0.5,0.2-0.5,0.6-0.4c1,0.2,2,0.2,2.9,0.2c0.7,0,1-0.2,1.1-0.6c0-0.6-0.5-0.6-0.9-0.7c-0.7-0.2-1.4-0.2-2.1-0.4
				c-1.3-0.4-1.7-1-1.8-2.2c-0.1-1.3,0.5-2.2,1.5-2.7c1.1-0.5,2.2-0.4,3.3-0.3c0.6,0.1,1.1,0.2,1.7,0.3c0.2,0,0.4,0.1,0.4,0.4
				C192.4,15.4,192.5,15.9,192.5,16.5z"/>
			<path class="st20" d="M204,16.8c0-1.5,1.1-2.5,2.6-2.4c1.4,0,2.5,1.1,2.4,2.6c0,1.5-1.1,2.5-2.6,2.5C205,19.4,204,18.3,204,16.8z
				"/>
			<path class="st19" d="M206.5,23c-0.7,0-1.4,0-2,0c-0.5,0-0.5-0.2-0.4-0.5c0.1-1,0.9-1.8,2.1-2c1.1-0.2,2.1,0.3,2.6,1.3
				c0.5,1.1,0.4,1.3-0.7,1.3C207.5,23,207,23,206.5,23L206.5,23z"/>
		</g>
	</g>
	<line class="st21" x1="174.6" y1="0.5" x2="174.6" y2="29.9"/>
</g>
</svg>
