<?xml version="1.0" encoding="UTF-8"?>
<svg xmlns="http://www.w3.org/2000/svg" xmlns:xlink="http://www.w3.org/1999/xlink" width="841.89pt" height="595.28pt" viewBox="0 0 841.89 595.28" version="1.1">
<g id="surface1">
<path style=" stroke:none;fill-rule:nonzero;fill:rgb(14.361572%,22.370911%,43.676758%);fill-opacity:1;" d="M 379.355469 291.75 C 379.355469 288.042969 378.992188 285.25 378.039062 282.359375 C 377.121094 279.59375 374.726562 276.394531 371.691406 273.90625 C 369.847656 272.382812 364.613281 269.011719 353.363281 266.171875 L 348.726562 265.03125 C 348.425781 264.964844 347.914062 264.824219 347.222656 264.625 C 342.082031 263.328125 336.1875 262.554688 335.117188 259.054688 C 334.394531 256.710938 334.695312 254.734375 336.957031 252.890625 C 338.558594 251.566406 341.074219 251.160156 344.3125 251.160156 C 347.867188 251.160156 350.441406 252.503906 352.5 253.90625 C 354.222656 255.089844 355.515625 258.386719 356.1875 260.472656 L 376.988281 259.464844 C 375.914062 253.128906 372.878906 246.09375 368.03125 242.527344 C 362.523438 238.5 354.457031 236.875 344.660156 236.875 C 334.707031 236.875 326.910156 239.503906 321.324219 243.726562 C 315.855469 247.871094 313.207031 253.433594 313.207031 260.742188 C 313.207031 264.339844 313.914062 267.574219 315.28125 270.332031 C 316.675781 273.09375 318.765625 275.507812 321.546875 277.484375 C 322.941406 278.4375 325.351562 279.535156 328.667969 280.726562 C 332.097656 281.953125 336.785156 283.328125 342.625 284.828125 L 345.941406 285.652344 C 349.035156 286.421875 358.332031 288.824219 357.585938 294.835938 C 357.171875 298.167969 355.441406 299.503906 353.082031 300.933594 C 352.519531 301.269531 349.957031 302.855469 346.550781 302.855469 C 342.464844 302.855469 339.238281 301.328125 337.238281 299.515625 C 334.144531 296.6875 332.816406 292.597656 331.925781 290.011719 L 311.234375 291.09375 C 311.472656 298.222656 315.332031 306.765625 320.523438 310.738281 C 326.324219 315.175781 335.289062 317.566406 345.414062 317.566406 C 356.425781 317.566406 364.917969 315.308594 370.691406 310.886719 C 376.371094 306.519531 379.355469 299.984375 379.355469 291.75 "/>
<path style=" stroke:none;fill-rule:nonzero;fill:rgb(14.361572%,22.370911%,43.676758%);fill-opacity:1;" d="M 395.007812 315.425781 L 416.78125 315.425781 L 416.78125 237.894531 L 395.007812 237.894531 Z M 395.007812 315.425781 "/>
<path style=" stroke:none;fill-rule:nonzero;fill:rgb(14.361572%,22.370911%,43.676758%);fill-opacity:1;" d="M 720.433594 282.8125 L 720.433594 268.449219 L 683.570312 268.449219 L 683.570312 253.09375 L 724.28125 253.09375 L 724.28125 237.894531 L 660.800781 237.894531 L 660.800781 315.425781 L 725.367188 315.429688 L 725.367188 298.941406 L 683.570312 298.925781 L 683.570312 282.8125 Z M 720.433594 282.8125 "/>
<path style=" stroke:none;fill-rule:nonzero;fill:rgb(14.361572%,22.370911%,43.676758%);fill-opacity:1;" d="M 495.453125 282.8125 L 495.453125 268.449219 L 458.628906 268.449219 L 458.628906 253.09375 L 499.359375 253.09375 L 499.359375 237.894531 L 435.882812 237.894531 L 435.882812 315.425781 L 501.042969 315.425781 L 501.042969 299.953125 L 458.628906 299.953125 L 458.628906 282.8125 Z M 495.453125 282.8125 "/>
<path style=" stroke:none;fill-rule:nonzero;fill:rgb(14.361572%,22.370911%,43.676758%);fill-opacity:1;" d="M 516.296875 238.378906 L 516.296875 315.425781 L 573.917969 315.425781 L 573.917969 296.945312 L 538.167969 296.945312 L 538.167969 238.378906 Z M 516.296875 238.378906 "/>
<path style=" stroke:none;fill-rule:nonzero;fill:rgb(14.361572%,22.370911%,43.676758%);fill-opacity:1;" d="M 646.914062 238.402344 L 577.472656 238.402344 L 577.472656 255.632812 L 601.191406 255.632812 L 601.191406 315.425781 L 623.195312 315.425781 L 623.195312 255.632812 L 646.914062 255.632812 Z M 646.914062 238.402344 "/>
<path style=" stroke:none;fill-rule:nonzero;fill:rgb(14.361572%,22.370911%,43.676758%);fill-opacity:1;" d="M 238.289062 297.746094 C 217.71875 294.878906 198.191406 289.273438 182.433594 279.988281 C 180.40625 278.832031 178.710938 277.691406 176.882812 276.550781 C 174.90625 275.105469 172.933594 273.679688 170.984375 272.257812 C 166.769531 269.136719 162.414062 266.375 158 263.960938 C 149.222656 259.078125 140.25 255.492188 131.507812 252.773438 C 113.988281 247.421875 97.414062 245.628906 82.804688 245.328125 C 79.144531 245.273438 75.632812 245.3125 72.128906 245.558594 C 68.859375 245.734375 65.710938 245.890625 62.679688 246.046875 C 56.5625 246.347656 50.917969 246.621094 45.839844 246.875 C 44.773438 246.925781 43.734375 246.980469 42.707031 247.035156 C 41.675781 249.332031 40.542969 251.882812 39.558594 254.25 C 41.558594 254.359375 43.636719 254.480469 45.839844 254.589844 C 50.917969 254.84375 56.5625 255.117188 62.679688 255.417969 C 65.789062 255.558594 69.019531 255.707031 72.382812 255.859375 C 75.476562 255.972656 78.820312 256.183594 82.21875 256.511719 C 95.847656 257.828125 111.171875 260.9375 126.691406 266.859375 C 134.417969 269.800781 142.203125 273.507812 149.550781 278.230469 C 153.261719 280.558594 156.839844 283.164062 160.257812 286.03125 C 162.140625 287.582031 164.019531 289.148438 165.9375 290.722656 C 168.167969 292.367188 170.480469 294.160156 172.738281 295.554688 C 191.007812 307.402344 212.566406 314.421875 234.890625 318.5625 C 245.339844 320.523438 256.035156 321.621094 266.9375 322.167969 C 268.476562 315.722656 269.042969 307.0625 269.246094 300.230469 C 258.785156 300.066406 248.371094 299.09375 238.289062 297.746094 "/>
<path style=" stroke:none;fill-rule:nonzero;fill:rgb(14.361572%,22.370911%,43.676758%);fill-opacity:1;" d="M 153.191406 415.757812 C 91.453125 415.757812 40.75 368.679688 34.964844 308.457031 L 45.125 308.957031 L 54.992188 309.40625 C 57.804688 309.515625 60.730469 309.703125 63.683594 309.988281 C 77.480469 311.320312 90.824219 314.425781 103.394531 319.214844 C 110.566406 321.953125 117.121094 325.199219 122.976562 328.941406 C 126.015625 330.863281 128.941406 332.988281 131.757812 335.386719 L 137.847656 340.386719 L 139.558594 341.65625 C 141.511719 343.109375 143.710938 344.742188 146.113281 346.253906 C 164.855469 358.351562 187.320312 366.71875 214.75 371.804688 C 223.472656 373.441406 232.597656 374.59375 242.449219 375.304688 C 220.671875 400.101562 188.769531 415.757812 153.191406 415.757812 "/>
<path style=" stroke:none;fill-rule:nonzero;fill:rgb(29.849243%,44.895935%,74.659729%);fill-opacity:1;" d="M 243.546875 279.855469 C 223.621094 277.082031 207.117188 271.90625 194.265625 264.335938 C 193.117188 263.675781 192.101562 263.019531 191.085938 262.367188 L 190 261.667969 L 184.652344 257.804688 C 179.871094 254.265625 174.792969 251.019531 169.671875 248.222656 C 160.570312 243.160156 150.488281 238.890625 139.621094 235.511719 C 122.777344 230.363281 105.203125 227.660156 85.828125 227.269531 C 84.761719 227.25 83.730469 227.242188 82.703125 227.242188 C 79.4375 227.242188 76.484375 227.335938 73.707031 227.523438 L 64.488281 228.007812 L 56.1875 228.414062 C 77.703125 198.023438 113.117188 178.15625 153.1875 178.15625 C 213.765625 178.15625 263.730469 223.511719 271.019531 282.128906 C 262.65625 281.945312 253.628906 281.207031 243.546875 279.855469 "/>
<path style=" stroke:none;fill-rule:nonzero;fill:rgb(29.849243%,44.895935%,74.659729%);fill-opacity:1;" d="M 518.78125 331.117188 C 511.921875 331.117188 505.042969 330.914062 498.078125 331.074219 C 491.113281 331.234375 484.105469 331.402344 477.117188 331.570312 C 470.105469 331.738281 463.089844 331.929688 456.121094 332.109375 C 449.230469 332.625 442.371094 333.136719 435.582031 333.640625 C 428.667969 334.1875 422.246094 334.566406 415.125 335.238281 C 408.53125 335.859375 402.003906 336.472656 395.59375 337.074219 C 382.796875 338.511719 370.34375 338.804688 358.578125 339.621094 C 346.808594 340.167969 335.640625 340.339844 325.351562 340.582031 C 315.085938 340.488281 305.644531 340.6875 297.316406 340.371094 C 288.972656 340.160156 281.71875 339.949219 275.757812 339.585938 C 269.753906 339.328125 265.1875 338.964844 262.054688 338.738281 C 260.539062 338.617188 259.378906 338.519531 258.558594 338.449219 L 258.539062 338.449219 C 257.640625 338.375 257.140625 338.339844 257.140625 338.339844 L 256.925781 338.324219 C 256.808594 338.308594 256.695312 338.304688 256.566406 338.300781 C 256.457031 338.296875 256.351562 338.324219 256.234375 338.324219 C 246.335938 337.875 236.523438 336.167969 226.984375 334.78125 C 206.425781 331.699219 186.976562 325.890625 171.332031 316.433594 C 169.320312 315.25 167.621094 314.089844 165.828125 312.925781 C 163.835938 311.472656 161.902344 310.019531 159.953125 308.574219 C 155.773438 305.402344 151.441406 302.597656 147.0625 300.140625 C 138.324219 295.160156 129.398438 291.472656 120.691406 288.664062 C 103.226562 283.117188 86.675781 281.15625 72.082031 280.699219 C 68.410156 280.605469 64.890625 280.601562 61.375 280.816406 C 58.105469 280.953125 54.949219 281.082031 51.941406 281.207031 C 45.800781 281.4375 40.167969 281.648438 35.089844 281.84375 C 14.742188 282.699219 3.117188 283.359375 3.117188 283.359375 C 2.128906 283.417969 1.3125 284.191406 1.214844 285.203125 C 1.140625 286.3125 1.960938 287.273438 3.082031 287.367188 C 3.082031 287.367188 14.6875 288.277344 35.011719 289.5625 C 40.074219 289.863281 45.710938 290.195312 51.835938 290.570312 C 54.9375 290.742188 58.167969 290.929688 61.515625 291.113281 C 64.632812 291.257812 67.960938 291.511719 71.34375 291.875 C 84.957031 293.335938 100.269531 296.617188 115.703125 302.699219 C 123.417969 305.726562 131.144531 309.515625 138.460938 314.308594 C 142.132812 316.6875 145.691406 319.324219 149.074219 322.230469 C 150.953125 323.808594 152.816406 325.390625 154.691406 326.992188 C 156.925781 328.65625 159.207031 330.464844 161.445312 331.886719 C 179.601562 343.929688 201.070312 351.1875 223.363281 355.5625 C 234.542969 357.792969 243.890625 359.199219 255.609375 359.824219 C 255.609375 359.824219 257.367188 359.910156 260.65625 360.050781 C 264.007812 360.171875 268.953125 360.359375 275.074219 360.398438 C 281.21875 360.535156 288.695312 360.476562 297.230469 360.359375 C 305.792969 360.367188 315.40625 359.796875 325.902344 359.492188 C 336.375 358.859375 347.738281 358.261719 359.722656 357.242188 C 371.6875 355.976562 384.335938 355.164062 397.316406 353.234375 C 403.804688 352.359375 410.421875 351.484375 417.117188 350.601562 C 423.265625 349.792969 430.34375 349.070312 437.011719 348.296875 C 443.789062 347.535156 450.628906 346.765625 457.476562 345.988281 C 464.296875 345.558594 471.121094 345.136719 477.960938 344.699219 C 484.796875 344.28125 491.644531 343.855469 498.464844 343.441406 C 505.273438 343.035156 513.15625 342.769531 519.949219 342.515625 "/>
<path style=" stroke:none;fill-rule:nonzero;fill:rgb(29.849243%,44.895935%,74.659729%);fill-opacity:1;" d="M 515.722656 331.089844 C 515.722656 331.089844 520.550781 330.820312 529.003906 330.363281 C 533.222656 330.039062 538.394531 330.152344 544.292969 330 C 550.203125 329.914062 556.867188 329.820312 564.136719 329.707031 C 571.40625 329.628906 579.277344 329.53125 587.613281 329.4375 C 595.921875 329.628906 604.691406 329.828125 613.757812 330.050781 C 631.890625 330.472656 651.238281 330.929688 670.589844 331.378906 C 680.257812 331.476562 689.925781 332.113281 699.441406 332.660156 C 708.953125 333.203125 718.308594 333.738281 727.378906 334.253906 C 745.492188 335.296875 762.398438 336.261719 776.894531 337.085938 C 805.882812 338.738281 825.207031 339.84375 825.207031 339.84375 C 826.171875 339.894531 826.90625 341.136719 826.875 342.613281 C 826.839844 344.074219 826.046875 345.21875 825.109375 345.1875 L 825.074219 345.183594 C 825.074219 345.183594 805.757812 344.464844 776.769531 343.382812 C 762.269531 342.84375 745.359375 342.210938 727.25 341.542969 C 718.1875 341.195312 708.839844 340.859375 699.324219 340.5 C 689.816406 340.140625 680.160156 339.695312 670.5 339.789062 C 651.179688 339.71875 631.855469 339.648438 613.746094 339.578125 C 604.691406 339.546875 595.933594 339.515625 587.632812 339.480469 C 579.351562 339.742188 571.515625 339.992188 564.289062 340.21875 C 557.058594 340.464844 550.4375 340.699219 544.5625 340.898438 C 538.683594 341.164062 533.574219 341.148438 529.355469 341.554688 C 520.898438 342.1875 516.074219 342.546875 516.074219 342.546875 L 516.03125 342.546875 C 513.992188 342.707031 512.25 340.261719 512.152344 337.09375 C 512.050781 333.9375 513.628906 331.25 515.675781 331.097656 C 515.675781 331.097656 515.710938 331.089844 515.722656 331.089844 "/>
<path style=" stroke:none;fill-rule:evenodd;fill:rgb(92.385864%,10.986328%,23.519897%);fill-opacity:1;" d="M 813.394531 286.671875 C 813.207031 281.894531 811.351562 278.425781 806.101562 278.105469 C 800.105469 277.757812 795.007812 285.554688 795.246094 294.433594 C 795.382812 299.09375 797.648438 301.78125 802.445312 301.882812 C 808.53125 302.019531 813.578125 294.957031 813.394531 286.671875 M 816.023438 266.957031 C 818.988281 262.742188 818.082031 257.632812 819.28125 252.992188 C 820.164062 249.425781 820.523438 247.191406 825.574219 246.351562 C 843.355469 243.421875 839.859375 243.835938 837.816406 259.515625 C 835.710938 275.644531 832.210938 291.570312 829.472656 307.609375 C 828.910156 310.960938 828.953125 314.878906 824.738281 315.214844 C 820.183594 315.609375 814.082031 317.933594 811.390625 313.738281 C 808.929688 309.863281 807.917969 311.078125 805.5 312.609375 C 798.386719 317.136719 790.621094 318.6875 783.417969 313.886719 C 775.8125 308.820312 774.898438 300.625 776.042969 292.089844 C 779.234375 268.378906 793.136719 259.617188 816.023438 266.957031 "/>
<path style=" stroke:none;fill-rule:evenodd;fill:rgb(92.385864%,10.986328%,23.519897%);fill-opacity:1;" d="M 759.394531 264.273438 C 767.339844 262.953125 769.773438 265.722656 767.953125 273.746094 C 765.351562 285.21875 763.796875 296.960938 761.878906 308.605469 C 760.179688 319.03125 751.894531 315.410156 746.148438 315.308594 C 738.785156 315.15625 742.335938 309.324219 742.957031 305.757812 C 744.8125 294.71875 747.398438 283.816406 749.027344 272.765625 C 749.996094 266.148438 752.359375 262.585938 759.394531 264.273438 "/>
<path style=" stroke:none;fill-rule:evenodd;fill:rgb(92.385864%,10.986328%,23.519897%);fill-opacity:1;" d="M 758.613281 258.109375 C 755.039062 257.851562 751.933594 258.835938 751.9375 254.261719 C 751.953125 246.734375 756.179688 242.113281 763.65625 243.601562 C 766.875 244.242188 771.351562 241.902344 772.480469 248.230469 C 773.300781 252.8125 771 260.152344 758.613281 258.109375 "/>
</g>
</svg>
