<?xml version="1.0" encoding="UTF-8"?>
<svg id="design" xmlns="http://www.w3.org/2000/svg" viewBox="0 0 1379 350">
  <defs>
    <style>
      .cls-1 {
        fill: #0072ce;
      }

      .cls-2 {
        fill: #0071ce;
      }

      .cls-3 {
        fill: #fff;
      }
    </style>
  </defs>
  <g>
    <path class="cls-2" d="M437.44,104.78h20v140.02h-20V104.78Z"/>
    <path class="cls-2" d="M487.64,144.78h17.2l1.2,11.6c3.2-4.13,7.27-7.33,12.2-9.6,4.93-2.27,10.4-3.4,16.4-3.4,7.73,0,14.43,1.63,20.1,4.9,5.66,3.27,10.07,8.1,13.2,14.5,3.13,6.4,4.7,14.4,4.7,24v58.01h-18.8v-55.61c0-9.33-1.97-16.43-5.9-21.3-3.94-4.87-9.64-7.3-17.1-7.3s-13.73,2.5-18,7.5c-4.27,5-6.4,12.37-6.4,22.1v54.61h-18.8v-100.01Z"/>
    <path class="cls-2" d="M604.66,133.58c0-7.6,1.3-14,3.9-19.2,2.6-5.2,6.63-8.97,12.1-11.3,5.47-2.33,12.67-3.1,21.6-2.3v16.6c-6.94-.66-11.77.4-14.5,3.2-2.73,2.8-4.1,7.14-4.1,13v11.2h19.8v16.8h-19.8v83.21h-19v-83.21h-12.8v-16.8h12.8v-11.2Z"/>
    <path class="cls-2" d="M706.27,246.2c-9.47,0-17.97-2.1-25.5-6.3-7.54-4.2-13.44-10.13-17.7-17.8-4.27-7.67-6.4-16.7-6.4-27.1s2.2-19.67,6.6-27.4c4.4-7.73,10.4-13.7,18-17.9,7.6-4.2,16.13-6.3,25.6-6.3s18.04,2.1,25.7,6.3c7.67,4.2,13.7,10.14,18.1,17.8,4.4,7.67,6.6,16.7,6.6,27.1s-2.23,19.67-6.7,27.4c-4.47,7.74-10.57,13.7-18.3,17.9-7.74,4.2-16.4,6.3-26.01,6.3ZM706.07,228.99c5.33,0,10.33-1.23,15-3.7,4.67-2.47,8.5-6.23,11.5-11.3,3-5.07,4.5-11.53,4.5-19.4s-1.43-14.1-4.3-19.1-6.63-8.73-11.3-11.2c-4.67-2.47-9.67-3.7-15-3.7s-10.04,1.23-14.5,3.7c-4.47,2.47-8.1,6.24-10.9,11.3-2.8,5.07-4.2,11.54-4.2,19.4s1.37,14.1,4.1,19.1,6.3,8.74,10.7,11.2c4.4,2.47,9.2,3.7,14.4,3.7Z"/>
    <path class="cls-2" d="M823.08,246.2c-9.6,0-18.07-2.17-25.41-6.5-7.33-4.33-13.03-10.3-17.1-17.9-4.07-7.6-6.1-16.47-6.1-26.6s2.07-19.27,6.2-27c4.13-7.73,9.87-13.8,17.2-18.2,7.33-4.4,15.87-6.6,25.6-6.6,10.27,0,19.3,2.4,27.1,7.2,7.8,4.8,13.44,11.27,16.9,19.4l-17,6c-2-4.67-5.37-8.4-10.1-11.2-4.73-2.8-10.1-4.2-16.1-4.2s-11.4,1.43-15.8,4.3c-4.4,2.87-7.8,6.87-10.2,12-2.4,5.14-3.6,11.17-3.6,18.1,0,10.4,2.67,18.67,8,24.8,5.33,6.14,12.53,9.2,21.6,9.2,6,0,11.37-1.33,16.1-4,4.73-2.67,8.3-6.33,10.7-11l16.8,6c-3.73,8-9.6,14.37-17.6,19.1-8,4.73-17.07,7.1-27.2,7.1Z"/>
    <path class="cls-2" d="M934.3,246.2c-9.6,0-18.1-2.23-25.51-6.7-7.4-4.47-13.2-10.63-17.4-18.5-4.2-7.87-6.3-16.87-6.3-27s2.07-18.4,6.2-26,9.83-13.6,17.1-18c7.26-4.4,15.5-6.6,24.7-6.6s17.6,2.03,24.8,6.1c7.2,4.07,12.8,9.74,16.8,17,4,7.27,5.93,15.64,5.8,25.1,0,1.6-.07,3.23-.2,4.9-.13,1.67-.33,3.5-.6,5.5h-74.01c.4,5.34,1.9,10.04,4.5,14.1,2.6,4.07,5.93,7.23,10,9.5,4.06,2.27,8.7,3.4,13.9,3.4,6.67,0,12.47-1.3,17.4-3.9,4.93-2.6,8.4-6.1,10.4-10.5l16.4,5.8c-4,8.14-9.84,14.47-17.5,19-7.67,4.54-16.5,6.8-26.5,6.8ZM959.9,185.79c0-4.8-1.2-9.13-3.6-13-2.4-3.87-5.64-6.9-9.7-9.1s-8.63-3.3-13.7-3.3c-4.53,0-8.7,1.1-12.5,3.3-3.8,2.2-7,5.2-9.6,9-2.6,3.8-4.24,8.17-4.9,13.1h54.01Z"/>
    <path class="cls-2" d="M1003.5,144.78h17.2l1.2,13.4c2.8-3.47,6.03-6.37,9.7-8.7,3.67-2.33,7.67-3.97,12-4.9,4.33-.93,8.83-.87,13.5.2v17.8c-4.4-1.07-8.67-1.2-12.8-.4-4.14.8-7.83,2.5-11.1,5.1-3.27,2.6-5.9,6.03-7.9,10.3-2,4.27-3,9.4-3,15.4v51.81h-18.8v-100.01Z"/>
    <path class="cls-2" d="M1082.51,144.78v-28h19v28h25v16.8h-25v49.21c0,6.14,1.23,10.47,3.7,13,2.47,2.54,5.6,3.97,9.4,4.3,3.8.33,7.77.23,11.9-.3v16.2c-5.47,1.2-10.84,1.57-16.1,1.1-5.27-.47-10-1.97-14.2-4.5-4.2-2.53-7.53-6.23-10-11.1-2.47-4.87-3.7-11.1-3.7-18.7v-49.21h-14.4v-16.8h14.4Z"/>
    <path class="cls-2" d="M1204.92,104.78h20v140.02h-20V104.78Z"/>
    <path class="cls-2" d="M1304.53,104.78c15.2,0,28.31,2.87,39.31,8.6,11,5.74,19.53,13.87,25.6,24.4,6.07,10.54,9.1,23.07,9.1,37.6s-3.04,26.77-9.1,37.1c-6.07,10.34-14.6,18.3-25.6,23.9-11,5.6-24.1,8.4-39.31,8.4h-48.01V104.78h48.01ZM1304.53,227.99c17.6,0,30.97-4.63,40.11-13.9,9.13-9.27,13.7-22.17,13.7-38.71s-4.57-29.97-13.7-39.5c-9.14-9.53-22.5-14.3-40.11-14.3h-28v106.41h28Z"/>
  </g>
  <polygon class="cls-1" points="297.5 297.5 0 350 0 52.5 297.5 0 297.5 297.5"/>
  <g>
    <path class="cls-3" d="M148.75,166.25c24.12,0,43.75-19.63,43.75-43.75s-19.63-43.75-43.75-43.75-43.75,19.63-43.75,43.75,19.63,43.75,43.75,43.75ZM148.75,96.25c14.47,0,26.25,11.78,26.25,26.25s-11.77,26.25-26.25,26.25-26.25-11.77-26.25-26.25,11.77-26.25,26.25-26.25Z"/>
    <path class="cls-3" d="M175,183.75h-52.5c-28.95,0-52.5,23.55-52.5,52.5v26.25c0,4.83,3.92,8.75,8.75,8.75h140c4.83,0,8.75-3.92,8.75-8.75v-26.25c0-28.95-23.55-52.5-52.5-52.5ZM210,253.75h-122.5v-17.5c0-19.3,15.7-35,35-35h52.5c19.3,0,35,15.7,35,35v17.5Z"/>
  </g>
</svg>