<svg width="215" height="60" viewBox="0 0 215 60" fill="none" xmlns="http://www.w3.org/2000/svg">
<path fill-rule="evenodd" clip-rule="evenodd" d="M10.0199 3.26648C6.34583 3.26648 3.26648 6.37251 3.26648 10.3324V49.6676C3.26648 53.6277 6.34433 56.7335 10.0199 56.7335H24.6705V60H10.0199C4.42848 60 0 55.3178 0 49.6676V10.3324C0 4.68193 4.43041 0 10.0199 0H24.6705V3.26648H10.0199Z" fill="#0B2E4F"/>
<path fill-rule="evenodd" clip-rule="evenodd" d="M50.0181 3.26648H35.3295V0H50.0181C55.5943 0 60 4.68917 60 10.3324V49.6676C60 55.3205 55.5933 60 50.0181 60H35.3295V56.7335H50.0181C53.666 56.7335 56.7335 53.6423 56.7335 49.6676V10.3324C56.7335 6.36527 53.665 3.26648 50.0181 3.26648Z" fill="#0B2E4F"/>
<path d="M30 27.3528C28.4294 27.3528 26.8941 26.8871 25.5881 26.0145C24.2822 25.1419 23.2644 23.9017 22.6633 22.4506C22.0623 20.9995 21.905 19.4028 22.2114 17.8624C22.5178 16.322 23.2742 14.907 24.3848 13.7964C25.4954 12.6858 26.9103 11.9295 28.4508 11.6231C29.9912 11.3166 31.5879 11.4739 33.039 12.0749C34.49 12.676 35.7303 13.6938 36.6029 14.9998C37.4754 16.3057 37.9412 17.841 37.9412 19.4116C37.9412 21.5178 37.1045 23.5376 35.6153 25.0269C34.126 26.5162 32.1061 27.3528 30 27.3528ZM30 14.8075C29.0882 14.8071 28.1968 15.0772 27.4386 15.5836C26.6803 16.0899 26.0892 16.8098 25.7401 17.6521C25.3911 18.4944 25.2996 19.4213 25.4774 20.3156C25.6552 21.2099 26.0943 22.0314 26.739 22.6761C27.3837 23.3208 28.2052 23.7599 29.0995 23.9377C29.9938 24.1155 30.9207 24.024 31.763 23.675C32.6053 23.3259 33.3252 22.7348 33.8315 21.9765C34.3379 21.2183 34.608 20.3269 34.6076 19.4151C34.6058 18.1936 34.1198 17.0227 33.2561 16.159C32.3924 15.2953 31.2215 14.8093 30 14.8075Z" fill="#006F98"/>
<path d="M44.2408 47.6473H16.6382C16.2037 47.6473 15.787 47.4802 15.4798 47.1829C15.1726 46.8856 15 46.4824 15 46.0619V41.268C15 35.4446 19.6188 30.8826 25.5139 30.8826H35.3702C41.2652 30.8826 45.8824 35.4446 45.8824 41.268V46.0619C45.8826 46.2704 45.8402 46.477 45.7578 46.6696C45.6753 46.8623 45.5544 47.0373 45.4018 47.1846C45.2493 47.3319 45.0682 47.4486 44.869 47.528C44.6697 47.6074 44.4563 47.6479 44.2408 47.6473ZM18.2764 44.4765H42.6094V41.268C42.6094 37.2224 39.4316 34.0533 35.3736 34.0533H25.5173C21.4592 34.0533 18.2798 37.2224 18.2798 41.268L18.2764 44.4765Z" fill="#006F98"/>
<path d="M73.1341 21V38.1429H70.5V21H73.1341Z" fill="#0B2E4F"/>
<path d="M79.2944 38.1429H76.6464V21H79.2944L88.7961 34.9308H88.0437V21H90.6951V38.1429H88.0437L78.542 24.2104H79.2944V38.1429Z" fill="#0B2E4F"/>
<path d="M96.8286 21V38.1429H94.2074V21H96.8286ZM103.481 30.9645H94.3507V28.6025H103.481V30.9645ZM104.744 23.3834H94.3974V21H104.744V23.3834Z" fill="#0B2E4F"/>
<path d="M122.305 29.9809C122.305 31.7534 121.952 33.316 121.245 34.6689C120.574 35.9817 119.555 37.0826 118.3 37.85C117.046 38.6146 115.591 38.9975 113.937 38.9986C112.414 39.027 110.914 38.6293 109.604 37.85C108.354 37.0889 107.339 35.994 106.672 34.6873C105.972 33.3479 105.622 31.7913 105.622 30.0177C105.622 28.2441 105.976 26.6814 106.684 25.3297C107.354 24.0162 108.373 22.915 109.629 22.1486C110.884 21.3817 112.328 20.9989 113.962 21C115.595 21.0011 117.046 21.384 118.313 22.1486C119.563 22.9184 120.578 24.019 121.247 25.3297C121.952 26.6747 122.305 28.2251 122.305 29.9809ZM119.563 29.9809C119.563 28.6716 119.333 27.5381 118.872 26.5804C118.448 25.6642 117.774 24.8875 116.928 24.3402C116.279 23.9174 115.547 23.6388 114.781 23.5232C114.016 23.4075 113.234 23.4574 112.49 23.6694C111.745 23.8815 111.054 24.2509 110.463 24.7529C109.872 25.255 109.394 25.878 109.062 26.5804C108.592 27.5381 108.357 28.6716 108.359 29.9809C108.36 31.2902 108.594 32.4281 109.062 33.3947C109.412 34.0803 109.898 34.6864 110.491 35.1754C111.084 35.6644 111.77 36.026 112.508 36.2377C113.245 36.4494 114.018 36.5068 114.778 36.4063C115.539 36.3058 116.271 36.0495 116.928 35.6534C117.778 35.1011 118.453 34.3155 118.872 33.3897C119.354 32.3199 119.59 31.1549 119.563 29.9809Z" fill="#0B2E4F"/>
<path d="M132.651 38.9992C130.92 38.9992 129.41 38.6274 128.121 37.8837C126.831 37.1376 125.791 36.0458 125.127 34.74C124.416 33.3879 124.061 31.8082 124.061 30.0009C124.061 28.1937 124.424 26.6213 125.151 25.2837C125.842 23.969 126.908 22.874 128.221 22.1283C129.542 21.3768 131.06 21.001 132.775 21.001C134.066 20.982 135.346 21.2356 136.525 21.7441C137.609 22.2134 138.558 22.93 139.294 23.8327C140.033 24.7559 140.519 25.8455 140.706 26.9998H137.799C137.51 25.969 136.857 25.0691 135.954 24.4567C135.054 23.8494 133.969 23.5453 132.699 23.5441C131.623 23.5196 130.562 23.7944 129.642 24.3359C128.767 24.8798 128.07 25.6544 127.633 26.5687C127.155 27.5283 126.916 28.6723 126.914 30.0009C126.888 31.1706 127.133 32.3311 127.633 33.3963C128.07 34.3222 128.771 35.1075 129.654 35.6593C130.568 36.2054 131.626 36.4844 132.699 36.4628C133.873 36.49 135.026 36.1674 136.004 35.5385C136.91 34.9563 137.58 34.087 137.897 33.0792H140.744C140.518 34.219 140.004 35.2866 139.247 36.186C138.483 37.084 137.512 37.7954 136.413 38.2628C135.227 38.7649 133.945 39.0159 132.651 38.9992Z" fill="#0B2E4F"/>
<path d="M153.911 38.1429H143.378V21H153.915V23.3834H144.914L145.977 22.4393V28.3715H153.112V30.6625H145.977V36.7069L144.914 35.738H153.915L153.911 38.1429Z" fill="#0B2E4F"/>
<path d="M159.955 38.1346H157.427V21H163.745C165.565 21 166.993 21.4597 168.03 22.3792C169.066 23.2987 169.583 24.58 169.581 26.2232C169.581 27.4033 169.309 28.3987 168.765 29.2093C168.192 30.0421 167.375 30.6661 166.433 30.9911L169.719 38.1429H166.939L163.93 31.5025H159.955V38.1346ZM159.955 23.313V29.2126H163.745C164.757 29.2126 165.538 28.9492 166.088 28.4224C166.639 27.8955 166.914 27.1674 166.915 26.238C166.915 25.2944 166.636 24.5707 166.077 24.0669C165.518 23.5632 164.741 23.3119 163.745 23.313H159.955Z" fill="#0B2E4F"/>
<path d="M171.476 23.3834V21H184.646V23.3834H171.476ZM179.395 22.2033V38.1429H176.723V22.2033H179.395Z" fill="#0B2E4F"/>
<path d="M196.061 21V38.1429H193.427V21H196.061Z" fill="#0B2E4F"/>
<path d="M205.681 38.1429H199.573V21H205.558C207.348 21 208.912 21.3576 210.25 22.0729C211.569 22.7724 212.654 23.8164 213.379 25.0835C214.126 26.3765 214.5 27.8801 214.5 29.5945C214.5 31.2781 214.13 32.7636 213.391 34.0511C212.673 35.3134 211.599 36.3567 210.292 37.0617C208.975 37.7825 207.438 38.1429 205.681 38.1429ZM202.275 22.2033V36.9544L200.994 35.7264H205.471C206.615 35.754 207.748 35.4982 208.759 34.9837C209.678 34.4955 210.424 33.7552 210.901 32.8577C211.402 31.9367 211.653 30.8468 211.654 29.5879C211.654 28.3115 211.399 27.2111 210.889 26.2868C210.401 25.3798 209.642 24.6327 208.709 24.141C207.766 23.6371 206.637 23.3851 205.322 23.3851H201.001L202.275 22.2033Z" fill="#0B2E4F"/>
</svg>
