<svg width="143" height="40" viewBox="0 0 143 40" fill="none" xmlns="http://www.w3.org/2000/svg">
<path fill-rule="evenodd" clip-rule="evenodd" d="M6.67996 2.17765C4.23055 2.17765 2.17765 4.24834 2.17765 6.88825V33.1117C2.17765 35.7518 4.22955 37.8223 6.67996 37.8223H16.447V40H6.67996C2.95232 40 0 36.8786 0 33.1117V6.88825C0 3.12129 2.95361 0 6.67996 0H16.447V2.17765H6.67996Z" fill="#0B2E4F"/>
<path fill-rule="evenodd" clip-rule="evenodd" d="M33.3454 2.17765H23.553V0H33.3454C37.0629 0 40 3.12611 40 6.88825V33.1117C40 36.8803 37.0622 40 33.3454 40H23.553V37.8223H33.3454C35.7774 37.8223 37.8224 35.7615 37.8224 33.1117V6.88825C37.8224 4.24352 35.7767 2.17765 33.3454 2.17765Z" fill="#0B2E4F"/>
<path d="M20 18.2353C18.9529 18.2353 17.9293 17.9248 17.0587 17.3431C16.1881 16.7614 15.5096 15.9346 15.1089 14.9672C14.7082 13.9998 14.6033 12.9353 14.8076 11.9084C15.0119 10.8814 15.5161 9.9381 16.2565 9.19771C16.9969 8.45731 17.9402 7.9531 18.9672 7.74882C19.9941 7.54455 21.0586 7.64939 22.026 8.05009C22.9933 8.45079 23.8202 9.12935 24.4019 9.99996C24.9836 10.8706 25.2941 11.8941 25.2941 12.9412C25.2941 14.3453 24.7363 15.6919 23.7435 16.6847C22.7507 17.6776 21.4041 18.2353 20 18.2353ZM20 9.87178C19.3921 9.87155 18.7979 10.0516 18.2924 10.3892C17.7868 10.7267 17.3928 11.2066 17.1601 11.7682C16.9274 12.3297 16.8664 12.9477 16.9849 13.5439C17.1035 14.1401 17.3962 14.6877 17.826 15.1175C18.2558 15.5473 18.8034 15.84 19.3996 15.9586C19.9958 16.0771 20.6138 16.0161 21.1753 15.7834C21.7369 15.5507 22.2168 15.1567 22.5543 14.6512C22.8919 14.1456 23.072 13.5514 23.0717 12.9435C23.0705 12.1292 22.7465 11.3486 22.1707 10.7728C21.5949 10.197 20.8143 9.873 20 9.87178Z" fill="#006F98"/>
<path d="M29.4939 31.7648H11.0921C10.8025 31.7648 10.5247 31.6535 10.3199 31.4553C10.1151 31.2571 10 30.9882 10 30.7079V27.512C10 23.6297 13.0792 20.5884 17.0093 20.5884H23.5801C27.5101 20.5884 30.5882 23.6297 30.5882 27.512V30.7079C30.5884 30.847 30.5602 30.9846 30.5052 31.1131C30.4502 31.2415 30.3696 31.3582 30.2679 31.4564C30.1662 31.5546 30.0455 31.6324 29.9127 31.6853C29.7798 31.7383 29.6375 31.7653 29.4939 31.7648ZM12.1842 29.651H28.4063V27.512C28.4063 24.8149 26.2877 22.7022 23.5824 22.7022H17.0115C14.3062 22.7022 12.1865 24.8149 12.1865 27.512L12.1842 29.651Z" fill="#006F98"/>
<path d="M48.7561 14V25.4286H47V14H48.7561Z" fill="#0B2E4F"/>
<path d="M52.863 25.4286H51.0976V14H52.863L59.1975 23.2872H58.6958V14H60.4634V25.4286H58.6958L52.3613 16.1402H52.863V25.4286Z" fill="#0B2E4F"/>
<path d="M64.5524 14V25.4286H62.8049V14H64.5524ZM68.9872 20.643H62.9005V19.0684H68.9872V20.643ZM69.8293 15.589H62.9316V14H69.8293V15.589Z" fill="#0B2E4F"/>
<path d="M81.5366 19.9872C81.5366 21.1689 81.301 22.2107 80.8299 23.1126C80.3826 23.9878 79.7031 24.7217 78.8666 25.2333C78.0303 25.7431 77.0607 25.9983 75.9578 25.999C74.9428 26.018 73.9426 25.7529 73.069 25.2333C72.2357 24.7259 71.5591 23.996 71.1146 23.1249C70.6479 22.2319 70.4146 21.1942 70.4146 20.0118C70.4146 18.8294 70.6505 17.7876 71.1224 16.8865C71.569 16.0108 72.2486 15.2767 73.0857 14.7657C73.9227 14.2545 74.8856 13.9993 75.9745 14C77.0633 14.0007 78.0303 14.256 78.8755 14.7657C79.7087 15.279 80.3853 16.0127 80.831 16.8865C81.3014 17.7831 81.5366 18.8167 81.5366 19.9872ZM79.7088 19.9872C79.7088 19.1144 79.5551 18.3587 79.2477 17.7203C78.965 17.1095 78.5158 16.5917 77.9522 16.2268C77.5191 15.9449 77.0311 15.7592 76.5208 15.6821C76.0105 15.605 75.4896 15.6382 74.9932 15.7796C74.4967 15.921 74.036 16.1673 73.6419 16.502C73.2477 16.8366 72.9293 17.252 72.7079 17.7203C72.3946 18.3587 72.2383 19.1144 72.239 19.9872C72.2397 20.8601 72.396 21.6187 72.7079 22.2632C72.9413 22.7202 73.2656 23.1242 73.6607 23.4503C74.0558 23.7763 74.5134 24.0173 75.005 24.1585C75.4967 24.2996 76.0119 24.3379 76.5188 24.2709C77.0258 24.2039 77.5137 24.033 77.9522 23.7689C78.5189 23.4008 78.9685 22.877 79.2477 22.2598C79.569 21.5466 79.7266 20.7699 79.7088 19.9872Z" fill="#0B2E4F"/>
<path d="M88.4339 25.9995C87.2802 25.9995 86.2735 25.7516 85.4137 25.2558C84.5539 24.7584 83.8608 24.0305 83.418 23.16C82.9442 22.2586 82.7073 21.2055 82.7073 20.0006C82.7073 18.7958 82.9496 17.7475 83.4341 16.8558C83.8948 15.9794 84.605 15.2493 85.4806 14.7522C86.3612 14.2512 87.3733 14.0007 88.5169 14.0007C89.3774 13.988 90.2305 14.157 91.0168 14.4961C91.739 14.8089 92.3723 15.2867 92.8626 15.8884C93.3552 16.5039 93.679 17.2303 93.8039 17.9999H91.8658C91.6732 17.3127 91.238 16.7127 90.6361 16.3045C90.0362 15.8996 89.3129 15.6968 88.4662 15.6961C87.7486 15.6797 87.0413 15.8629 86.4277 16.224C85.8443 16.5865 85.3797 17.1029 85.0884 17.7125C84.77 18.3522 84.6104 19.1149 84.6096 20.0006C84.5919 20.7804 84.7555 21.5541 85.0884 22.2642C85.3797 22.8815 85.8473 23.405 86.4358 23.7728C87.0454 24.1369 87.7503 24.3229 88.4662 24.3085C89.2484 24.3267 90.0175 24.1116 90.6695 23.6923C91.2736 23.3042 91.7197 22.7246 91.9316 22.0528H93.8293C93.6788 22.8127 93.3359 23.5244 92.8314 24.124C92.3222 24.7227 91.6749 25.1969 90.9418 25.5085C90.1514 25.8432 89.2963 26.0106 88.4339 25.9995Z" fill="#0B2E4F"/>
<path d="M102.608 25.4286H95.5853V14H102.61V15.589H96.6093L97.3183 14.9595V18.9143H102.075V20.4416H97.3183V24.4712L96.6093 23.8253H102.61L102.608 25.4286Z" fill="#0B2E4F"/>
<path d="M106.636 25.4231H104.951V14H109.163C110.377 14 111.329 14.3065 112.02 14.9195C112.711 15.5325 113.056 16.3867 113.054 17.4821C113.054 18.2689 112.873 18.9325 112.51 19.4729C112.128 20.0281 111.583 20.4441 110.956 20.6607L113.146 25.4286H111.293L109.286 21.0017H106.636V25.4231ZM106.636 15.542V19.4751H109.163C109.838 19.4751 110.359 19.2995 110.725 18.9482C111.092 18.597 111.276 18.1116 111.277 17.492C111.277 16.8629 111.091 16.3804 110.718 16.0446C110.345 15.7088 109.827 15.5413 109.163 15.542H106.636Z" fill="#0B2E4F"/>
<path d="M114.317 15.589V14H123.098V15.589H114.317ZM119.597 14.8022V25.4286H117.816V14.8022H119.597Z" fill="#0B2E4F"/>
<path d="M130.707 14V25.4286H128.951V14H130.707Z" fill="#0B2E4F"/>
<path d="M137.12 25.4286H133.049V14H137.039C138.232 14 139.275 14.2384 140.167 14.7152C141.046 15.1816 141.77 15.8776 142.253 16.7223C142.751 17.5843 143 18.5868 143 19.7297C143 20.8521 142.754 21.8424 142.261 22.7007C141.782 23.5423 141.066 24.2378 140.194 24.7078C139.317 25.1883 138.292 25.4286 137.12 25.4286ZM134.85 14.8022V24.6363L133.996 23.8176H136.98C137.743 23.836 138.499 23.6655 139.173 23.3224C139.786 22.997 140.283 22.5035 140.601 21.9051C140.935 21.2911 141.102 20.5645 141.102 19.7253C141.102 18.8743 140.933 18.1407 140.593 17.5245C140.267 16.9199 139.762 16.4218 139.14 16.094C138.511 15.758 137.758 15.5901 136.882 15.5901H134L134.85 14.8022Z" fill="#0B2E4F"/>
</svg>
