<?xml version="1.0" encoding="utf-8"?>
<!-- Generator: Adobe Illustrator 26.5.0, SVG Export Plug-In . SVG Version: 6.00 Build 0)  -->
<svg version="1.1" id="Livello_1" xmlns="http://www.w3.org/2000/svg" xmlns:xlink="http://www.w3.org/1999/xlink" x="0px" y="0px"
	 viewBox="0 0 350.82 245.72" style="enable-background:new 0 0 350.82 245.72;" xml:space="preserve">
<style type="text/css">
	.st0{fill:#A2A2AA;}
	.st1{fill:#232047;}
	.st2{fill:url(#SVGID_1_);}
	.st3{fill:url(#SVGID_00000117658025261070907000000003829482764002471819_);}
	.st4{fill:url(#SVGID_00000181086221746982918310000009942811606086136511_);}
	.st5{fill:url(#SVGID_00000094613775904624190490000007914011977027083423_);}
	.st6{fill:none;stroke:#232047;stroke-miterlimit:10;}
	.st7{fill:url(#SVGID_00000160888814343643931450000015233564188375863210_);}
	.st8{fill:url(#SVGID_00000152224467356905704220000016012150076286167952_);}
	.st9{fill:none;stroke:url(#SVGID_00000140700711529409214170000013496823364392430478_);stroke-miterlimit:10;}
	.st10{fill:none;stroke:url(#SVGID_00000058560167776559671460000004407803525843851447_);stroke-miterlimit:10;}
	.st11{fill:none;stroke:url(#SVGID_00000171691326344353891490000012804746922946071197_);stroke-miterlimit:10;}
	.st12{fill:none;stroke:url(#SVGID_00000040555491117370508590000005677919208830844054_);stroke-miterlimit:10;}
	.st13{fill:#2763AD;}
	.st14{fill:url(#SVGID_00000005987436128164486140000001244750344807140264_);}
	.st15{fill:url(#SVGID_00000145029652076215596820000003566133110357273216_);}
	.st16{fill:none;stroke:#008CCD;stroke-miterlimit:10;}
	.st17{fill:url(#SVGID_00000065065715366001303490000013887330173592020386_);}
	.st18{fill:url(#SVGID_00000104678834710185865100000008303085308972651654_);}
	.st19{fill:url(#SVGID_00000005235957296680739000000003966696984537823910_);}
	.st20{fill:url(#SVGID_00000062881159573178758040000013290733716673542324_);}
	.st21{fill:#232047;stroke:#232047;stroke-miterlimit:10;}
	.st22{fill:url(#SVGID_00000162311572961860262060000009210507620066346934_);}
	.st23{fill:url(#SVGID_00000117672541766578890670000000377352366208814213_);}
	.st24{fill:url(#SVGID_00000098186263756301328390000001075872632120984755_);}
	.st25{fill:url(#SVGID_00000155841292587064059470000004703080475282625958_);}
	.st26{fill:url(#SVGID_00000145737020856195703690000013866154911305403014_);}
	.st27{fill:url(#SVGID_00000173844202089375090740000006851173008488382611_);}
	.st28{fill:url(#SVGID_00000013161130619349528750000006238013820428588973_);}
	.st29{fill:url(#SVGID_00000147181974423293083070000005145953654274722491_);}
	.st30{fill:none;stroke:#2763AD;stroke-miterlimit:10;}
	.st31{fill:#232047;stroke:#FFFFFF;stroke-width:0.5;stroke-miterlimit:10;}
	
		.st32{fill:url(#SVGID_00000031898835770180042470000009092034064179677119_);stroke:#FFFFFF;stroke-width:0.5;stroke-miterlimit:10;}
	
		.st33{fill:url(#SVGID_00000114046204526957242810000001930187799296428688_);stroke:#FFFFFF;stroke-width:0.5;stroke-miterlimit:10;}
	
		.st34{fill:url(#SVGID_00000026150633281340016810000000245647622992153493_);stroke:#FFFFFF;stroke-width:0.5;stroke-miterlimit:10;}
	
		.st35{fill:url(#SVGID_00000067238126203540041970000005685544377255118772_);stroke:#FFFFFF;stroke-width:0.5;stroke-miterlimit:10;}
	.st36{fill:none;stroke:#000000;stroke-miterlimit:10;}
	.st37{fill:#F49900;}
	.st38{fill:#FFFFFF;}
	.st39{fill:url(#SVGID_00000011748036795260820940000003405867672083868313_);}
	.st40{fill:url(#SVGID_00000181063488744115442640000000209551078911049349_);}
	.st41{fill:url(#SVGID_00000079482815046212497440000011737877189508331445_);}
	.st42{fill:url(#SVGID_00000114042730867181793280000017502994816190262420_);}
	.st43{stroke:#000000;stroke-miterlimit:10;}
	.st44{fill:#FFFFFF;stroke:#FFFFFF;stroke-miterlimit:10;}
	.st45{fill:url(#SVGID_00000172409958061498546290000012311422092118326960_);}
	.st46{fill:url(#SVGID_00000039820809648213270380000007537460501811260602_);}
	.st47{fill:url(#SVGID_00000128455981881571454630000002944516103303491006_);}
	.st48{fill:url(#SVGID_00000181046729148847891160000000708302529175261583_);}
	.st49{fill:url(#SVGID_00000068658856339889068380000012319412484482226306_);}
	.st50{fill:url(#SVGID_00000145739280645694970470000000594040941699101079_);}
	.st51{fill:url(#SVGID_00000079488197416389349610000017290066219985081219_);}
	.st52{fill:url(#SVGID_00000155845174663369846450000011403231759143630472_);}
	.st53{fill:url(#SVGID_00000155831410832897765280000012500450047543728000_);}
	.st54{fill:url(#SVGID_00000033329544147364799200000011388650779998914723_);}
	.st55{fill:url(#SVGID_00000121252581303174524160000009933108293284800642_);}
	.st56{fill:url(#SVGID_00000098920573874308324600000012415843153182732202_);}
	.st57{fill:url(#SVGID_00000003807155504388680660000014876237898018907035_);}
	.st58{fill:url(#SVGID_00000135679876996247545680000003746362829747168917_);}
	.st59{fill:#9D9D9C;}
	.st60{fill:#9B9B9A;}
	.st61{fill:none;stroke:#FFFFFF;stroke-miterlimit:10;}
	.st62{fill:url(#SVGID_00000181774046134910401710000002016893555054301119_);}
	.st63{fill:url(#SVGID_00000173850619056585316850000005798804648689894786_);}
	.st64{clip-path:url(#SVGID_00000170237167024821756090000011225997508051426993_);}
	.st65{opacity:0.4;}
	.st66{fill:none;}
	.st67{fill:#636363;}
	.st68{fill:#E6E6E6;}
	.st69{fill:#ABABAB;}
	.st70{fill:#D4D4D4;}
	.st71{fill:#F7F7F7;}
	.st72{fill:#DBDCDA;}
	.st73{fill:#0E061D;}
	.st74{fill:#201D41;}
	.st75{fill:#253165;}
	.st76{fill:url(#SVGID_00000051381755784176409440000012202336830323338891_);}
	.st77{fill:url(#SVGID_00000169545682411060625800000017152736631322642855_);}
	.st78{fill:url(#SVGID_00000008847363061827410620000010346118818498538928_);}
	.st79{fill:url(#SVGID_00000132801858134838658470000011147520588534556292_);}
	.st80{fill:#272154;}
	.st81{fill:url(#SVGID_00000108269112353401561400000018289676302487903644_);}
	.st82{fill:url(#SVGID_00000134939546458379813370000008931378316711101315_);}
	.st83{fill:url(#SVGID_00000011024222424742591730000005553188467946345882_);}
	.st84{fill:url(#SVGID_00000087393314469931119510000017373478911573342887_);}
	.st85{fill:url(#SVGID_00000144328810088485459800000011557172332710766777_);}
	.st86{fill:url(#SVGID_00000144304650492702485810000017609519093042699925_);}
	.st87{fill:url(#SVGID_00000178922381186922259920000007780671209272455810_);}
	.st88{fill:url(#SVGID_00000156548013213274711270000017186768144474070713_);}
	.st89{clip-path:url(#SVGID_00000091694782700759664090000015351736837088183218_);}
	.st90{fill:url(#SVGID_00000182488232346384957220000008666698170916532411_);}
	.st91{fill:url(#SVGID_00000134238470963695982620000000475018395147826110_);}
	.st92{fill:url(#SVGID_00000005970146626134755760000007884750954006421438_);}
	.st93{fill:url(#SVGID_00000013883693979217082880000005696821108246028444_);}
	.st94{fill:url(#SVGID_00000079475778222225244960000010208263451867483520_);}
	.st95{fill:url(#SVGID_00000021111097308868010530000008623217694844353189_);}
	.st96{fill:url(#SVGID_00000062876268018136803230000011085245318891873702_);}
	.st97{fill:url(#SVGID_00000009577380726821351920000001577890789292861619_);}
	.st98{fill:url(#SVGID_00000058591341626492147430000002171445901112369585_);}
	.st99{fill:url(#SVGID_00000139253260764017261560000014999032161245486997_);}
	.st100{fill:url(#SVGID_00000007424329339069311070000018203700984148471726_);}
	.st101{fill:url(#SVGID_00000131363555572299757060000011402904415631636132_);}
	.st102{fill:url(#SVGID_00000147924399289667726090000002015693204558947481_);}
	.st103{fill:url(#SVGID_00000173863062780901566560000007117848420477202576_);}
	.st104{fill:url(#SVGID_00000142890668330771598520000011145575862884764322_);}
	.st105{fill:url(#SVGID_00000046335728836093879790000007692234017772526244_);}
	.st106{fill:url(#SVGID_00000057843981692615071840000009671162958609994383_);}
	.st107{fill:url(#SVGID_00000002358784776073868710000016981807484228059542_);}
	.st108{fill:url(#SVGID_00000101784741489362910130000006671240921766995893_);}
	.st109{fill:url(#SVGID_00000117651810580190734480000001827164219334912696_);}
	.st110{fill:url(#SVGID_00000178893608937472974300000011391166608374835079_);}
	.st111{fill:url(#SVGID_00000148639614809220865410000009233136416140970639_);}
	.st112{fill:url(#SVGID_00000182522449760736995410000010431225229177100176_);}
	.st113{fill:url(#SVGID_00000011015860991875824280000003319061285655646397_);}
	.st114{fill:url(#SVGID_00000084495154780492602770000012192676999953701517_);}
	.st115{fill:url(#SVGID_00000062190265893029424440000014141482676577724078_);}
	.st116{fill:url(#SVGID_00000044174246055619460050000006252523579878885508_);}
	.st117{fill:url(#SVGID_00000032644304195068078580000016261536979038793890_);}
	.st118{fill:url(#SVGID_00000155856849911760597100000011344733534830020018_);}
	.st119{fill:url(#SVGID_00000108308743575430760260000008394631374190378639_);}
	.st120{fill:url(#SVGID_00000144322105217724398890000011336616411506410422_);}
	.st121{fill:url(#SVGID_00000160908605303105725870000017431664767334855347_);}
	.st122{fill:url(#SVGID_00000138570961645047875660000008152276409698803621_);}
	.st123{fill:url(#SVGID_00000145761845332125444020000009503318013061907079_);}
	.st124{fill:url(#SVGID_00000178899019750830076150000008608715421080658622_);}
	.st125{fill:url(#SVGID_00000101799361147082418330000011643850969054844332_);}
	.st126{fill:url(#SVGID_00000070119936058248440280000000530614795473240710_);}
	.st127{fill:url(#SVGID_00000151517556881641526850000014143049492586789294_);}
	.st128{fill:url(#SVGID_00000172419638064175383690000003085662016485649550_);}
	.st129{fill:url(#SVGID_00000063615985608140548060000009044621472084171656_);}
	.st130{fill:url(#SVGID_00000157278128317687725350000009059750000297998727_);}
	.st131{fill:url(#SVGID_00000176043793516461234090000011583688589576764299_);}
	.st132{fill:url(#SVGID_00000087384313744991947810000010499822739417421237_);}
	.st133{fill:url(#SVGID_00000159441880360239103450000010542603468865191086_);}
	.st134{fill:url(#SVGID_00000034771387642764455850000004048644256292900539_);}
	.st135{fill:url(#SVGID_00000163040734273384115820000005547068652465921421_);}
	.st136{fill:url(#SVGID_00000027580727449243339950000007936847881059612822_);}
	.st137{fill:url(#SVGID_00000078016831244077642180000006189212551972581774_);}
	.st138{fill:url(#SVGID_00000093889601447034320760000003057056598442078892_);}
	.st139{fill:url(#SVGID_00000081635000547162420860000009021194933012581816_);}
	.st140{fill:url(#SVGID_00000108311536396152814320000013302281832586805172_);}
	.st141{fill:url(#SVGID_00000178182655802752049150000002641727533817594014_);}
	.st142{fill:url(#SVGID_00000096051416592161778960000016859581715214444728_);}
	.st143{fill:url(#SVGID_00000124160923819855152050000003435134913037877926_);}
	.st144{fill:url(#SVGID_00000150796597285259942010000016384411845721422730_);}
	.st145{fill:url(#SVGID_00000095319388154319852830000001509575548590401720_);}
	.st146{fill:url(#SVGID_00000078015083485589294340000015977603640426103219_);}
	.st147{fill:url(#SVGID_00000136374472553390602680000013104336295235786906_);}
	.st148{fill:url(#SVGID_00000057864033769859497670000008587317887486293424_);}
	.st149{fill:url(#SVGID_00000088108972220723663830000006094304935359885196_);}
	.st150{fill:url(#SVGID_00000008831234532770672530000004789825443620908442_);}
	.st151{fill:url(#SVGID_00000060022574912355461520000013913739659618988718_);}
	.st152{fill:url(#SVGID_00000012456961175641929560000009652686331518625180_);}
	.st153{fill:url(#SVGID_00000091699861092969322770000006066300772538008737_);}
</style>
<g>
	<g>
		<path class="st1" d="M24.17,137.45c0.05-5.65,3.78-9.81,8.29-11.03c1.32-0.36,2.67-0.5,4.03-0.34c0.79,0.1,1.58,0.14,2.37,0.11
			c2.88-0.09,5.5-0.97,7.85-2.64c0.71-0.5,1.35-1.08,1.96-1.7c0.58-0.58,1.13-1.19,1.62-1.85c1.34-1.82,2.2-3.85,2.59-6.07
			c0.26-1.48,0.28-2.97,0.09-4.46c-0.11-0.9-0.08-1.79,0.05-2.68c0.26-1.82,0.9-3.49,1.97-4.98c1.73-2.41,4.04-3.96,6.95-4.53
			c4.96-0.98,9.68,1.39,12.01,5.61c0.8,1.44,1.26,2.99,1.37,4.64c0.22,3.39-0.83,6.33-3.18,8.77c-1.65,1.71-3.67,2.77-6.03,3.2
			c-1.08,0.19-2.16,0.22-3.25,0.1c-3.31-0.34-6.41,0.3-9.26,2.06c-0.98,0.61-1.87,1.34-2.68,2.16c-0.48,0.49-0.96,0.98-1.38,1.52
			c-1.51,1.91-2.46,4.07-2.88,6.47c-0.22,1.27-0.27,2.55-0.14,3.84c0.1,1.03,0.15,2.05,0.02,3.08c-0.22,1.63-0.73,3.16-1.6,4.56
			c-1.67,2.68-4.04,4.4-7.12,5.09c-3.93,0.88-7.92-0.42-10.61-3.32c-1.58-1.71-2.55-3.73-2.9-6.04
			C24.23,138.47,24.2,137.91,24.17,137.45z"/>
		<linearGradient id="SVGID_1_" gradientUnits="userSpaceOnUse" x1="52.6291" y1="137.1653" x2="75.5357" y2="137.1653">
			<stop  offset="0" style="stop-color:#F5AC28"/>
			<stop  offset="1" style="stop-color:#EB752A"/>
		</linearGradient>
		<circle class="st2" cx="64.08" cy="137.17" r="11.45"/>
		
			<linearGradient id="SVGID_00000159429202479096368590000014017720612642682509_" gradientUnits="userSpaceOnUse" x1="24.113" y1="108.6492" x2="47.0196" y2="108.6492">
			<stop  offset="0" style="stop-color:#F5AC28"/>
			<stop  offset="1" style="stop-color:#EB752A"/>
		</linearGradient>
		<circle style="fill:url(#SVGID_00000159429202479096368590000014017720612642682509_);" cx="35.57" cy="108.65" r="11.45"/>
	</g>
	<g>
		<path class="st1" d="M107.68,106.38c9.38,0,22.01,7.05,20.11,24.27H95.12c1.27,6.97,6.68,10.8,13.59,10.8
			c4.37,0,8.19-1.25,11.44-3.76l4.85,4.54c-3.89,4.31-9.38,6.42-16.53,6.42c-3.58,0-6.99-0.7-10.25-2.19
			c-6.44-3.05-11.52-9.87-11.52-18.87c0-6.81,2.86-12.61,6.99-15.97C97.9,108.26,102.91,106.38,107.68,106.38z M107.68,113.66
			c-5.72,0-11.21,3.91-12.48,10.73h24.87c-0.4-3.37-1.83-6.03-4.29-7.91C113.32,114.6,110.62,113.66,107.68,113.66z"/>
		<path class="st1" d="M155.44,107.48v7.05h-8.74v22.78c0,2.58,1.27,3.84,3.89,3.84c1.51,0,3.1-0.31,4.85-0.94v6.97
			c-1.99,1.02-4.37,1.49-7.15,1.49c-6.36,0-10.17-2.51-10.17-9.47v-24.66h-5.72v-7.05h5.72V97.06h8.58v10.41H155.44z"/>
		<path class="st1" d="M185.4,107.16c4.29,0,7.95,1.49,10.97,4.54c3.02,3.05,4.53,7.52,4.53,13.39v23.57h-8.58v-23.1
			c0-7.28-4.13-10.96-9.85-10.96c-3.18,0-5.8,1.1-7.87,3.29c-1.99,2.11-3.18,4.31-3.42,6.42v24.35h-8.58v-40.71h8.58v8.46
			C172.05,114.05,176.34,107.16,185.4,107.16z"/>
		<path class="st1" d="M227.76,148.66c-4.77,0-9.7-1.8-13.75-5.17c-4.05-3.37-6.76-9.16-6.76-15.97c0-6.81,2.7-12.61,6.76-15.97
			c4.05-3.37,8.98-5.17,13.75-5.17c6.6,0,11.84,3.6,13.75,7.44h0.48v-6.66h8.58v40.71h-8.58v-6.65h-0.48
			C239.6,145.06,234.35,148.66,227.76,148.66z M228.87,141.14c3.58,0,6.68-1.17,9.3-3.6c2.7-2.43,4.05-5.72,4.05-10.02
			c0-4.31-1.35-7.59-4.05-10.02c-2.62-2.43-5.72-3.6-9.3-3.6c-3.5,0-6.6,1.17-9.3,3.6c-2.62,2.43-3.97,5.72-3.97,10.02
			c0,4.31,1.35,7.59,3.97,10.02C222.27,139.97,225.37,141.14,228.87,141.14z"/>
	</g>
	<g>
		
			<linearGradient id="SVGID_00000056418219222201224580000010655914032599293360_" gradientUnits="userSpaceOnUse" x1="261.541" y1="122.8621" x2="272.4635" y2="122.8621">
			<stop  offset="0" style="stop-color:#F5AC28"/>
			<stop  offset="1" style="stop-color:#EB752A"/>
		</linearGradient>
		<path style="fill:url(#SVGID_00000056418219222201224580000010655914032599293360_);" d="M261.54,97.06h10.92v51.6h-10.92V97.06z"
			/>
		
			<linearGradient id="SVGID_00000182530449069676716880000002815108717919839165_" gradientUnits="userSpaceOnUse" x1="281.4422" y1="122.8621" x2="326.7052" y2="122.8621">
			<stop  offset="0" style="stop-color:#F5AC28"/>
			<stop  offset="1" style="stop-color:#EB752A"/>
		</linearGradient>
		<path style="fill:url(#SVGID_00000182530449069676716880000002815108717919839165_);" d="M281.44,97.06h18.7
			c7.41,0,13.69,2.51,18.85,7.52c5.16,4.94,7.71,10.98,7.71,17.99c0,7.3-2.54,13.49-7.71,18.57c-5.16,5.01-11.45,7.52-18.85,7.52
			h-18.7V97.06z M292.37,138.49h7.71c4.86,0,8.6-1.47,11.3-4.5c2.77-3.02,4.12-6.86,4.12-11.43c0-4.35-1.35-7.96-4.12-10.91
			c-2.77-2.95-6.51-4.42-11.3-4.42h-7.71V138.49z"/>
	</g>
</g>
</svg>
