<svg width="319" height="42" viewBox="0 0 319 42" fill="none" xmlns="http://www.w3.org/2000/svg">
<path d="M17.947 38.8223C17.947 38.5462 17.7231 38.3223 17.447 38.3223H7.67996C5.5216 38.3223 3.67765 36.4918 3.67765 34.1117V7.88825C3.67765 5.50837 5.52254 3.67765 7.67996 3.67765H17.447C17.7231 3.67765 17.947 3.45379 17.947 3.17765V1C17.947 0.723858 17.7231 0.5 17.447 0.5H7.67996C3.65959 0.5 0.5 3.86336 0.5 7.88825V34.1117C0.5 38.1364 3.65824 41.5 7.67996 41.5H17.447C17.7231 41.5 17.947 41.2761 17.947 41V38.8223Z" fill="#0B2E4F" stroke="#0B2E4F" stroke-linejoin="round"/>
<path d="M24.053 3.17765C24.053 3.45379 24.2769 3.67765 24.553 3.67765H34.3454C36.4827 3.67765 38.3224 5.50149 38.3224 7.88825V34.1117C38.3224 36.5032 36.4837 38.3223 34.3454 38.3223H24.553C24.2769 38.3223 24.053 38.5462 24.053 38.8223V41C24.053 41.2761 24.2769 41.5 24.553 41.5H34.3454C38.3581 41.5 41.5 38.1363 41.5 34.1117V7.88825C41.5 3.87051 38.3592 0.5 34.3454 0.5H24.553C24.2769 0.5 24.053 0.723858 24.053 1V3.17765Z" fill="#0B2E4F" stroke="#0B2E4F" stroke-linejoin="round"/>
<path d="M21 19.2353C19.9529 19.2353 18.9293 18.9248 18.0587 18.3431C17.1881 17.7614 16.5096 16.9346 16.1089 15.9672C15.7082 14.9998 15.6033 13.9353 15.8076 12.9084C16.0119 11.8814 16.5161 10.9381 17.2565 10.1977C17.9969 9.45731 18.9402 8.9531 19.9672 8.74882C20.9941 8.54455 22.0586 8.64939 23.026 9.05009C23.9933 9.45079 24.8202 10.1293 25.4019 11C25.9836 11.8706 26.2941 12.8941 26.2941 13.9412C26.2941 15.3453 25.7363 16.6919 24.7435 17.6847C23.7507 18.6776 22.4041 19.2353 21 19.2353ZM21 10.8718C20.3921 10.8715 19.7979 11.0516 19.2924 11.3892C18.7868 11.7267 18.3928 12.2066 18.1601 12.7682C17.9274 13.3297 17.8664 13.9477 17.9849 14.5439C18.1035 15.1401 18.3962 15.6877 18.826 16.1175C19.2558 16.5473 19.8034 16.84 20.3996 16.9586C20.9958 17.0771 21.6138 17.0161 22.1753 16.7834C22.7369 16.5507 23.2168 16.1567 23.5543 15.6512C23.8919 15.1456 24.072 14.5514 24.0717 13.9435C24.0705 13.1292 23.7465 12.3486 23.1707 11.7728C22.5949 11.197 21.8143 10.873 21 10.8718Z" fill="#006F98" stroke="#006F98"/>
<path d="M30.4939 32.7648H12.0921C11.8025 32.7648 11.5247 32.6535 11.3199 32.4553C11.1151 32.2571 11 31.9882 11 31.7079V28.512C11 24.6297 14.0792 21.5884 18.0093 21.5884H24.5801C28.5101 21.5884 31.5882 24.6297 31.5882 28.512V31.7079C31.5884 31.847 31.5602 31.9846 31.5052 32.1131C31.4502 32.2415 31.3696 32.3582 31.2679 32.4564C31.1662 32.5546 31.0455 32.6324 30.9127 32.6853C30.7798 32.7383 30.6375 32.7653 30.4939 32.7648ZM13.1842 30.651H29.4063V28.512C29.4063 25.8149 27.2877 23.7022 24.5824 23.7022H18.0115C15.3062 23.7022 13.1865 25.8149 13.1865 28.512L13.1842 30.651Z" fill="#006F98" stroke="#006F98"/>
<path d="M61.7927 4.625V35.8155H57V4.625H61.7927Z" fill="#0B2E4F"/>
<path d="M73.001 35.8155H68.183V4.625H73.001L90.2889 29.9714H88.9198V4.625H93.744V35.8155H88.9198L71.6319 10.4661H73.001V35.8155Z" fill="#0B2E4F"/>
<path d="M104.903 4.625V35.8155H100.134V4.625H104.903ZM117.007 22.7549H100.395V18.4574H117.007V22.7549ZM119.305 8.96152H100.48V4.625H119.305V8.96152Z" fill="#0B2E4F"/>
<path d="M151.256 20.9652C151.256 24.1902 150.613 27.0334 149.327 29.4947C148.107 31.8833 146.252 33.8864 143.969 35.2827C141.687 36.6738 139.041 37.3704 136.031 37.3724C133.261 37.4242 130.531 36.7006 128.147 35.2827C125.872 33.8979 124.026 31.9057 122.813 29.5283C121.539 27.0912 120.902 24.2592 120.902 21.0322C120.902 17.8052 121.546 14.962 122.834 12.5027C124.053 10.1128 125.908 8.10924 128.192 6.71475C130.476 5.31955 133.105 4.62297 136.076 4.625C139.048 4.62704 141.687 5.32362 143.994 6.71475C146.268 8.1155 148.114 10.1179 149.331 12.5027C150.614 14.9498 151.256 17.7707 151.256 20.9652ZM146.268 20.9652C146.268 18.583 145.848 16.5207 145.009 14.7782C144.238 13.1113 143.012 11.6981 141.474 10.7023C140.292 9.93305 138.96 9.42623 137.567 9.21576C136.174 9.00529 134.753 9.09603 133.398 9.4819C132.043 9.86777 130.786 10.5399 129.71 11.4533C128.635 12.3666 127.765 13.5002 127.161 14.7782C126.306 16.5207 125.879 18.583 125.882 20.9652C125.884 23.3474 126.31 25.4178 127.161 27.1765C127.798 28.4239 128.683 29.5266 129.762 30.4163C130.84 31.3061 132.089 31.9639 133.43 32.3492C134.772 32.7344 136.178 32.8388 137.562 32.6559C138.945 32.473 140.277 32.0068 141.474 31.286C143.02 30.2812 144.247 28.8518 145.009 27.1674C145.886 25.2209 146.316 23.1012 146.268 20.9652Z" fill="#0B2E4F"/>
<path d="M170.08 37.3736C166.931 37.3736 164.184 36.697 161.837 35.3439C159.491 33.9864 157.599 32 156.391 29.6241C155.098 27.1641 154.451 24.2899 154.451 21.0017C154.451 17.7135 155.112 14.8526 156.435 12.419C157.692 10.027 159.63 8.03456 162.02 6.67787C164.423 5.3105 167.185 4.62681 170.307 4.62681C172.655 4.5922 174.983 5.05359 177.129 5.97893C179.1 6.83268 180.829 8.13649 182.167 9.77888C183.511 11.4587 184.395 13.4411 184.736 15.5414H179.446C178.921 13.6658 177.733 12.0284 176.09 10.9143C174.453 9.8094 172.479 9.25594 170.168 9.25391C168.21 9.20932 166.279 9.70923 164.605 10.6945C163.013 11.6841 161.745 13.0934 160.95 14.757C160.081 16.5028 159.645 18.5844 159.643 21.0017C159.594 23.1299 160.041 25.2414 160.95 27.1793C161.745 28.8641 163.021 30.2929 164.627 31.2967C166.291 32.2903 168.214 32.7979 170.168 32.7587C172.303 32.8083 174.402 32.2212 176.181 31.0769C177.83 30.0177 179.048 28.436 179.626 26.6025H184.805C184.394 28.6763 183.458 30.6187 182.082 32.2551C180.692 33.889 178.925 35.1833 176.924 36.0337C174.767 36.9472 172.434 37.404 170.08 37.3736Z" fill="#0B2E4F"/>
<path d="M208.762 35.8155H189.598V4.625H208.768V8.96152H192.392L194.327 7.24373V18.037H207.308V22.2053H194.327V33.2028L192.392 31.4399H208.768L208.762 35.8155Z" fill="#0B2E4F"/>
<path d="M219.758 35.8005H215.158V4.625H226.654C229.966 4.625 232.564 5.46147 234.45 7.13441C236.336 8.80734 237.277 11.1386 237.273 14.1283C237.273 16.2755 236.778 18.0865 235.789 19.5614C234.745 21.0767 233.259 22.2119 231.546 22.8032L237.524 35.8155H232.466L226.99 23.7337H219.758V35.8005ZM219.758 8.83335V19.5674H226.654C228.495 19.5674 229.916 19.0881 230.917 18.1296C231.919 17.171 232.42 15.8463 232.422 14.1553C232.422 12.4384 231.914 11.1216 230.897 10.2051C229.88 9.28861 228.466 8.83135 226.654 8.83335H219.758Z" fill="#0B2E4F"/>
<path d="M240.719 8.96152V4.625H264.683V8.96152H240.719ZM255.128 6.81428V35.8155H250.268V6.81428H255.128Z" fill="#0B2E4F"/>
<path d="M285.451 4.625V35.8155H280.658V4.625H285.451Z" fill="#0B2E4F"/>
<path d="M302.954 35.8155H291.841V4.625H302.731C305.987 4.625 308.833 5.27568 311.268 6.57703C313.668 7.8498 315.642 9.74927 316.961 12.0547C318.32 14.4072 319 17.143 319 20.2623C319 23.3255 318.328 26.0283 316.982 28.3707C315.676 30.6675 313.722 32.5656 311.343 33.8484C308.948 35.1598 306.151 35.8155 302.954 35.8155ZM296.757 6.81428V33.6532L294.426 31.4189H302.571C304.654 31.4691 306.715 31.0036 308.555 30.0675C310.227 29.1794 311.585 27.8324 312.452 26.1995C313.363 24.5237 313.819 22.5407 313.821 20.2503C313.821 17.9278 313.358 15.9258 312.43 14.244C311.543 12.5938 310.162 11.2346 308.464 10.3399C306.747 9.42299 304.693 8.96452 302.302 8.96452H294.439L296.757 6.81428Z" fill="#0B2E4F"/>
</svg>
