<svg baseProfile="basic" id="Layer_2" xmlns="http://www.w3.org/2000/svg" viewBox="0 0 534.5 150.7"><style>.st0{fill:#FFF}.st1{fill:#114c97}.st2{fill:#057cba}</style><path id="XMLID_34_" class="st0" d="M385.3 99.2v48.1c0 1.9.3 3.2 2.5 3.3 2.6.1 5.2.3 7.9.3 4.7-.1 9.4-.3 14.1-.5 1.8-.1 2.3-1.1 2.3-2.8V50.8c0-1.7-.5-2.8-2.3-2.8-7.2-.1-14.4-.3-21.6-.3-2.2 0-2.9 1.3-2.9 3.5v48z"/><path id="XMLID_32_" class="st1" d="M346-.5c0 .1 0 .2.1.2 4.3 1.8 4.3 1.8 4.3 6.5v139.2c0 3.3-.9 4.4-4.3 4.5-7 .2-13.9.4-20.9.5-2.2 0-4.4-.2-6.6-.5-2.1-.3-3.1-1.3-3.1-3.7.1-27.1.1-54.1.1-81.2v-2.9c-.1 0-.3-.1-.4-.1-1.2 3.1-2.5 6.3-3.7 9.4-4.9 12.2-9.9 24.4-14.9 36.6-2 4.9-4 9.9-5.9 14.9-.7 1.8-1.9 2.6-3.6 2.9-2.2.3-4.4.5-6.6.5-6.1-.1-12.1-.3-18.2-.5-2.1-.1-3.7-.9-4.6-3-3.9-9.1-7.9-18.1-11.8-27.2-3.7-8.7-7.5-17.4-11.1-26.1-1.1-2.5-1.9-5.1-3.4-7.6v83.7c0 3.1-.9 4.2-4.1 4.3-7.4.2-14.8.4-22.1.5-1.9 0-3.8-.1-5.6-.5-1.8-.4-3-1.4-3-3.7.1-47.6.1-95.1 0-142.7 0-2 .9-2.8 2.5-3.4.5-.2.9-.4 1.4-.6h32.1c.5.2.9.5 1.4.6 2.8.4 4.8 1.9 5.8 4.6.5 1.3 1.1 2.5 1.6 3.8 4.4 10.4 8.7 20.7 13.1 31.1 3.7 8.8 7.5 17.5 11.1 26.4 3.3 8.3 6.3 16.8 9.5 25.1.2-.3.4-.6.6-1 6.3-15.8 12.4-31.6 18.8-47.3 4.4-10.9 8.9-21.9 13.6-32.7 1.8-4.1 2.1-9.6 8-10.7 9.9.1 19.9.1 29.9.1z"/><path id="XMLID_31_" class="st1" d="M109-.5c.5 3.8 1.2 7.5 1.3 11.3.1 5.6-.2 11.3-.4 16.9-.1 3.3-1.2 4.2-4.6 4.2h-33v112.8c0 3.8-1.1 5-4.9 5.2-6.8.2-13.6.4-20.4.5-2.2 0-4.4-.3-6.6-.5-2.2-.2-3.3-1.6-3.5-3.7-.1-.7 0-1.5 0-2.2V35.6v-3.5c-1 0-1.8-.1-2.7-.1-10 0-20.1-.1-30.1 0-2.2 0-3.9-.3-4.9-2.4V-.5H109z"/><path id="XMLID_30_" class="st1" d="M163.8-.5c0 .1 0 .2.1.2 4.3 1.8 4.3 1.8 4.3 6.5v139.2c0 3.3-.9 4.4-4.3 4.5-7.2.2-14.4.4-21.6.5-1.9 0-3.9-.2-5.8-.5-2.1-.3-3.2-1.2-3.1-3.7.2-12 .1-24 .1-36V6.8c0-3.3-.2-6.3 3.9-7.2 8.6-.1 17.5-.1 26.4-.1z"/><path id="XMLID_28_" class="st2" d="M402.3-.5c1.9 1.1 3.9 2.1 5.7 3.3 9 6 8.7 20.3-.9 26.3-9.3 5.8-22 1.4-25-9-2.2-7.5 1.5-16 9.2-19.3.8-.3 1.4-.9 2.1-1.3h8.9z"/><path id="XMLID_25_" class="st2" d="M501.4 140.1c-5.7 6.1-12.7 9.3-20.4 10.2-12.3 1.4-23.8-.4-33.2-9.4-8-7.7-12.2-17.3-13.5-28-.9-7.3-1.4-14.7-.9-22 .7-12.3 4.1-23.9 12.2-33.5 6.1-7.3 13.9-11.8 23.4-13.1 8.5-1.2 16.8-.7 24.5 3.6 1.9 1.1 3.6 2.4 6 3.9v-3.2-44c0-3.2.8-4 4-4.1 3.7-.1 7.4-.4 11-.4 2.9 0 5.9.2 8.8.5 2.7.2 3.4 1.1 3.4 4v117.8c0 4.3.8 5.2 5.2 5.6 1.8.1 2.7 1 2.7 2.8v13.8c0 1.7-.8 2.9-2.6 3.3-6.5 1.7-13.1 2.8-19.8.9-3.7-1.1-6.7-3-8.8-6.1-.7-.9-1.3-1.6-2-2.6zm-2.1-43.2V77.5c0-.8-.2-1.9-.7-2.5-4.1-4.6-8.8-7.7-15.3-8.2-11-.8-18 6-20.6 15.2-2.6 9.5-2.7 19.2-.8 28.7 1.1 5.4 3.2 10.5 8.1 13.7 6.3 4.2 13.2 4.2 20.2 2 5.8-1.8 9.3-5 9.1-12.4-.1-5.6 0-11.4 0-17.1z"/><path id="XMLID_24_" class="st2" d="M385.3 99.2c0-16 .1-31.9-.1-47.9 0-2.3.6-3.6 2.9-3.5 7.2 0 14.4.2 21.6.3 1.8 0 2.3 1.1 2.3 2.8v96.8c0 1.7-.5 2.7-2.3 2.8-4.7.2-9.4.4-14.1.5-2.6 0-5.2-.2-7.9-.3-2.2-.1-2.5-1.4-2.5-3.3.1-16.1.1-32.1.1-48.2z"/></svg>