<svg baseProfile="basic" id="Layer_1" xmlns="http://www.w3.org/2000/svg" viewBox="0 0 376.3 150.7"><style>.st0{fill:#FFF}.st1{fill:#ede633}.st2{fill:#0050a0}</style><path id="XMLID_22_" class="st0" d="M7.7 6.1H330v137.1H7.7z"/><path id="XMLID_21_" class="st1" d="M225.6 0h150.7v150.7H225.6z"/><g id="XMLID_9_"><path id="XMLID_18_" class="st2" d="M27.6 96.9V47.2h22.8c12.2 0 20.2 3.9 20.2 16 0 12-8 16-20.2 16h-9.1v17.7H27.6zm20.9-27.4c5.4-.2 7.7-2.7 7.7-6.3 0-3.6-2.3-6.1-7.7-6.3h-7.1v12.7h7.1z"/><path id="XMLID_15_" class="st2" d="M111.2 79.7c0 12.7-9.3 18.3-20.1 18.3S71 92.4 71 79.7c0-12.7 9.3-18.3 20.1-18.3s20.1 5.5 20.1 18.3M91.1 90.4c5.5 0 6.7-5.8 6.7-10.7 0-4.9-1.2-10.7-6.7-10.7s-6.7 5.9-6.7 10.7c.1 4.8 1.2 10.7 6.7 10.7"/><path id="XMLID_14_" class="st2" d="M134.1 73.1c0-1.2-.2-2.2-.8-2.9-.7-.8-1.8-1.2-3.6-1.2-1.9 0-3.1 1.1-3.1 3.1 0 2.5 5.3 2.4 13.5 5 4.1 1.3 7 3.9 7 9.5 0 9.2-8.6 11.5-16.5 11.5-8.5 0-16.7-1.7-16.7-12.2h12.4c-.2 1 .1 2.2.9 3.1.8.9 1.9 1.6 3.1 1.6 2.5 0 4.4-1 4.4-3.2 0-6.1-20.4-2.5-20.4-15 0-8.5 9.1-10.9 16-10.9 8.2 0 15.8 2.1 16.3 11.7h-12.5z"/><path id="XMLID_13_" class="st2" d="M155.6 62.4v-5.2l13.1-5v10.2h7.6v8.3h-7.6v13.7c0 .9-.6 5.4 2.5 5.4 1.7 0 3.5 0 5-.2v7.8c-3 .5-5.1.7-7 .7-8.9 0-14.2-1.2-13.6-11.8V70.6h-6.7v-8.3h6.7z"/><path id="XMLID_10_" class="st2" d="M191.4 82.3c-.1 4.5 1.1 8.3 6 8.3 3.6 0 5.9-1.7 6.4-5h12.1c-.4 4.5-3.2 7.7-6.5 9.6-3 1.9-6.9 2.7-10.9 2.7-13.8 0-19.3-5.9-19.3-19.5 0-10.9 8.2-17.1 18.6-17.1 14 0 18.5 8 18.5 20.9h-24.9zm12.4-7.1c0-1.9-.6-3.7-1.6-5.2-1-1.4-2.6-2.3-4.5-2.2-4.5.2-5.6 3.4-6 7.4h12.1z"/></g><path id="XMLID_8_" class="st2" d="M0 150.7h225.6v-12.9H12.9V12.9h212.7V0H0z"/><g id="XMLID_2_"><path id="XMLID_6_" class="st2" d="M260 110V38.2h14V110h-14z"/><path id="XMLID_3_" class="st2" d="M335.6 103.1c-4.7 4.7-11.5 6.9-18.9 6.9h-25.9V38.2h25.9c7.5 0 14.2 2.1 18.9 6.9 8.1 8.1 7.3 17.9 7.3 28.7s.8 21.2-7.3 29.3zm-9.8-48c-2.4-2.9-5.6-4.4-10.5-4.4h-10.6v46.8h10.6c4.8 0 8.1-1.5 10.5-4.4 2.6-3.2 3-8.4 3-19.2 0-11-.4-15.5-3-18.8z"/></g></svg>